<svg width="79" height="22" viewBox="0 0 79 22" fill="none" xmlns="http://www.w3.org/2000/svg">
<path d="M12.8929 20.5992C12.8903 20.4172 12.9283 20.2371 13.0038 20.0724C13.0769 19.9098 13.1777 19.7618 13.3014 19.6354C13.4275 19.5082 13.5761 19.4066 13.7391 19.3361C13.9054 19.2648 14.084 19.2282 14.2643 19.2283C14.4428 19.227 14.6197 19.2637 14.7836 19.3361C14.9396 19.4126 15.0817 19.5159 15.2038 19.6414C15.3239 19.7682 15.4208 19.9163 15.4898 20.0784C15.5604 20.2445 15.5962 20.424 15.5948 20.6052C15.5877 20.9738 15.4461 21.3262 15.198 21.5929C15.0771 21.7184 14.9347 21.8199 14.7778 21.8922C14.6138 21.9646 14.437 22.0013 14.2584 22C14.0781 22.0001 13.8996 21.9635 13.7332 21.8922C13.5688 21.8217 13.4199 21.7178 13.2955 21.5869C13.1704 21.4572 13.0695 21.305 12.9979 21.1379C12.9273 20.9676 12.8916 20.7843 12.8929 20.5992ZM16.1609 16.9476L18.7344 4.6937L16.6336 4.22678L14.0659 16.4806L16.1609 16.9476ZM44.9485 5.93885H48.4792V4.34651H44.9485V0.00048379H43.6997C43.5779 -0.00509861 43.4587 0.037803 43.3671 0.120216C43.2797 0.199419 43.2219 0.307354 43.2037 0.425503L42.8652 4.32256H40.8694V5.43599C40.8631 5.50333 40.8719 5.57126 40.8952 5.63455C40.9184 5.69785 40.9555 5.75485 41.0036 5.80116C41.0947 5.87997 41.2114 5.92059 41.3304 5.9149H44.9544M48.129 14.6189C48.1019 14.5596 48.0602 14.5085 48.008 14.4707C47.9559 14.4329 47.895 14.4097 47.8314 14.4034C47.7499 14.4121 47.6727 14.4455 47.6096 14.4992L47.3003 14.7027C47.1624 14.7834 47.018 14.8515 46.8685 14.9063C46.6807 14.9719 46.4833 15.0043 46.2849 15.002C46.1075 15.0086 45.9306 14.978 45.765 14.9122C45.5995 14.8463 45.4487 14.7465 45.322 14.6189C45.1847 14.4552 45.0808 14.2649 45.0167 14.0592C44.9525 13.8535 44.9293 13.6367 44.9485 13.4217V7.27378C44.379 7.27378 43.8327 7.50587 43.43 7.91901C43.0272 8.33214 42.801 8.89246 42.801 9.47671V13.6132C42.7401 14.4854 43.0193 15.3466 43.5771 16.0077C43.8718 16.2962 44.2214 16.5191 44.604 16.6623C44.9867 16.8055 45.394 16.8659 45.8006 16.8398C46.3531 16.8411 46.9012 16.7376 47.417 16.5345C47.9142 16.3493 48.3705 16.0644 48.7593 15.6964L48.129 14.6189ZM4.0751 5.9149H7.61155V4.32256H4.0751V0.00048379H2.82625C2.70636 -0.00416242 2.58934 0.038718 2.49945 0.120216C2.41206 0.199419 2.35429 0.307354 2.33605 0.425503L1.99758 4.32256H0.00175797V5.43599C-0.00401852 5.50278 0.00448143 5.57006 0.0266553 5.63313C0.0488291 5.6962 0.0841438 5.75354 0.130145 5.80116C0.222296 5.87798 0.338251 5.91834 0.456944 5.9149H4.08677M7.2614 14.6189C7.23383 14.5587 7.19124 14.5071 7.13795 14.4693C7.08466 14.4314 7.02256 14.4087 6.95795 14.4034C6.87692 14.4141 6.80025 14.4472 6.73619 14.4992C6.65449 14.5591 6.54944 14.6309 6.43272 14.7027C6.29484 14.7834 6.15035 14.8515 6.00089 14.9063C5.81306 14.9719 5.61572 15.0043 5.41731 15.002C5.23905 15.008 5.06144 14.9772 4.89502 14.9114C4.7286 14.8456 4.57678 14.7461 4.44858 14.6189C4.31236 14.4545 4.20923 14.2641 4.14513 14.0586C4.08103 13.8531 4.05723 13.6366 4.0751 13.4217V7.27378C3.79336 7.27378 3.51438 7.33081 3.25415 7.44159C2.99393 7.55237 2.75756 7.71473 2.55861 7.91937C2.35966 8.12401 2.20202 8.36691 2.09473 8.63415C1.98745 8.90139 1.93261 9.1877 1.93338 9.47671V13.6132C1.87247 14.4854 2.15165 15.3466 2.70954 16.0077C3.00417 16.2962 3.35379 16.5191 3.73642 16.6623C4.11906 16.8055 4.52644 16.8659 4.93296 16.8398C5.48548 16.8406 6.03342 16.7371 6.54945 16.5345C7.04663 16.3493 7.5029 16.0644 7.89166 15.6964L7.2614 14.6189ZM78.0079 13.8646C77.8439 13.8704 77.6878 13.9387 77.5703 14.0562C77.4185 14.1819 77.2376 14.3256 77.0159 14.4812C76.7541 14.6583 76.4718 14.8011 76.1755 14.9063C75.76 15.0479 75.3234 15.1127 74.8858 15.0978C74.3773 15.1072 73.8731 15.0009 73.4094 14.7865C72.9689 14.5764 72.5831 14.2626 72.2831 13.8706C71.9536 13.4273 71.7099 12.9234 71.5653 12.386C71.3883 11.7273 71.3038 11.0459 71.3144 10.3627V10.2968C71.3038 9.61359 71.3883 8.93226 71.5653 8.27349C71.7087 7.73566 71.9525 7.23147 72.2831 6.78889C72.5831 6.39695 72.9689 6.08314 73.4094 5.873C73.8726 5.65659 74.3769 5.54823 74.8858 5.55573C75.3237 5.54248 75.7605 5.60936 76.1755 5.75326C76.4729 5.85568 76.7556 5.99865 77.0159 6.1783C77.2376 6.33394 77.4185 6.47761 77.5703 6.60332C77.6878 6.72083 77.8439 6.78913 78.0079 6.79488C78.0878 6.79878 78.1673 6.78155 78.2389 6.74486C78.3104 6.70818 78.3715 6.65325 78.4164 6.58536L79 5.78321C78.7412 5.45033 78.4365 5.15791 78.0955 4.91519C77.7545 4.6748 77.3885 4.47402 77.0042 4.31657C76.6096 4.15289 76.1986 4.03445 75.7787 3.96338C75.349 3.88616 74.9135 3.8481 74.4773 3.84964C73.7454 3.84146 73.0199 3.99031 72.3473 4.28664C71.6961 4.5724 71.1128 4.99919 70.6374 5.53777C70.1351 6.13007 69.7505 6.81742 69.5053 7.56112C69.2196 8.44284 69.0814 9.36783 69.0968 10.2968V10.3627C69.0814 11.2917 69.2196 12.2167 69.5053 13.0984C69.7505 13.8421 70.1351 14.5295 70.6374 15.1218C71.1128 15.6603 71.6961 16.0871 72.3473 16.3729C73.0199 16.6692 73.7454 16.8181 74.4773 16.8099C74.9135 16.8114 75.349 16.7734 75.7787 16.6962C76.1986 16.6251 76.6096 16.5066 77.0042 16.3429C77.3885 16.1855 77.7545 15.9847 78.0955 15.7443C78.4365 15.5016 78.7412 15.2092 79 14.8763L78.4164 14.0742C78.3696 14.0098 78.3074 13.9589 78.2359 13.9264C78.1643 13.8939 78.0858 13.8809 78.0079 13.8886V13.8646ZM33.0436 13.8646C32.8798 13.8715 32.7242 13.9397 32.606 14.0562C32.4601 14.1819 32.2733 14.3256 32.0516 14.4812C31.7899 14.6583 31.5075 14.8011 31.2112 14.9063C30.7959 15.0484 30.3591 15.1132 29.9215 15.0978C29.413 15.1072 28.9088 15.0009 28.4451 14.7865C28.0064 14.5762 27.6225 14.2623 27.3246 13.8706C26.9951 13.4273 26.7515 12.9234 26.6068 12.386C26.4278 11.7276 26.3414 11.0462 26.3501 10.3627V10.2968C26.3414 9.6133 26.4278 8.93197 26.6068 8.27349C26.7502 7.73566 26.994 7.23147 27.3246 6.78889C27.6225 6.39721 28.0064 6.08336 28.4451 5.873C28.9083 5.65659 29.4126 5.54823 29.9215 5.55573C30.3595 5.54196 30.7963 5.60886 31.2112 5.75326C31.5086 5.85568 31.7913 5.99865 32.0516 6.1783C32.2733 6.33394 32.4601 6.47761 32.606 6.60332C32.7242 6.71987 32.8798 6.78801 33.0436 6.79488C33.1243 6.79812 33.2044 6.78065 33.2767 6.74406C33.3491 6.70747 33.4114 6.65292 33.458 6.58536L34.0416 5.78321C33.7842 5.44895 33.4793 5.15633 33.137 4.91519C32.796 4.6748 32.43 4.47402 32.0457 4.31657C31.6512 4.15289 31.2402 4.03445 30.8202 3.96338C30.3906 3.88616 29.9551 3.8481 29.5189 3.84964C28.7869 3.84146 28.0614 3.99031 27.3888 4.28664C26.7386 4.57114 26.157 4.99817 25.6848 5.53777C25.1785 6.12819 24.7917 6.81597 24.5468 7.56112C24.2611 8.44284 24.123 9.36783 24.1383 10.2968V10.3627C24.123 11.2917 24.2611 12.2167 24.5468 13.0984C24.7917 13.8436 25.1785 14.5313 25.6848 15.1218C26.157 15.6614 26.7386 16.0884 27.3888 16.3729C28.0614 16.6692 28.7869 16.8181 29.5189 16.8099C29.9551 16.8114 30.3906 16.7734 30.8202 16.6962C31.2402 16.6251 31.6512 16.5066 32.0457 16.3429C32.43 16.1855 32.796 15.9847 33.137 15.7443C33.4793 15.5032 33.7842 15.2106 34.0416 14.8763L33.458 14.0742C33.4095 14.0102 33.3462 13.9597 33.2738 13.9273C33.2015 13.8949 33.1223 13.8816 33.0436 13.8886V13.8646ZM63.7396 7.63296C63.6443 6.72287 63.2727 5.86646 62.6775 5.18458C62.2219 4.73377 61.6803 4.38457 61.0867 4.15895C60.4932 3.93332 59.8605 3.83617 59.2286 3.87359C58.7962 3.87203 58.3646 3.9101 57.9389 3.98733C57.5189 4.0584 57.1079 4.17684 56.7134 4.34052C56.3291 4.49797 55.9631 4.69875 55.6221 4.93914C55.2798 5.18028 54.9749 5.4729 54.7176 5.80716L55.3011 6.60931C55.3468 6.67639 55.4081 6.73069 55.4794 6.76728C55.5508 6.80387 55.6299 6.8216 55.7096 6.81883C55.8752 6.81231 56.0329 6.74422 56.1531 6.62727C56.299 6.50156 56.4858 6.35788 56.7075 6.20223C56.9678 6.02258 57.2505 5.87963 57.5479 5.77721C57.9628 5.63281 58.3996 5.56591 58.8376 5.57968C58.966 5.57968 59.0885 5.57968 59.2111 5.57968C59.5887 5.58866 59.96 5.68225 60.2987 5.85391C60.6374 6.02556 60.9354 6.27114 61.1719 6.5734C61.8722 7.47732 61.6562 9.56652 61.6562 9.56652C60.4796 9.58097 59.3071 9.71127 58.1548 9.95563C57.3393 10.1286 56.5529 10.4231 55.8205 10.8296C55.2993 11.1111 54.8557 11.5229 54.5308 12.0269C54.2749 12.456 54.1378 12.9485 54.134 13.4516C54.1157 13.9704 54.2073 14.4871 54.4024 14.9661C54.5697 15.3645 54.8232 15.7186 55.1435 16.0017C55.4635 16.2758 55.835 16.4795 56.2348 16.6004C56.6669 16.7416 57.1178 16.8122 57.5712 16.8099C57.9986 16.8122 58.4251 16.768 58.8434 16.6782C59.5872 16.5128 60.2865 16.1817 60.8917 15.7084C61.2184 15.4559 61.532 15.1862 61.8313 14.9003L62.0297 16.1993C62.0478 16.3145 62.1053 16.4194 62.1919 16.4951C62.2785 16.5708 62.3886 16.6124 62.5024 16.6123H63.7396V8.23158C63.7491 8.03216 63.7491 7.83238 63.7396 7.63296ZM61.6737 13.5893C61.4428 13.8419 61.1952 14.0779 60.9326 14.2957C60.6821 14.4973 60.4145 14.6756 60.1331 14.8284C59.5408 15.1437 58.8803 15.3003 58.2131 15.2834C57.9454 15.2846 57.6787 15.2504 57.4195 15.1816C57.1872 15.116 56.9707 15.0018 56.7834 14.8464C56.5974 14.6827 56.4497 14.4781 56.3515 14.2478C56.2408 13.977 56.1871 13.6853 56.194 13.3917C56.1915 13.0537 56.2959 12.7239 56.4916 12.4519C56.742 12.1284 57.0696 11.8768 57.4428 11.7216C57.988 11.4811 58.5605 11.3122 59.1469 11.2187C59.9825 11.0771 60.8269 10.9971 61.6737 10.9793V13.5893Z" fill="url(#paint0_linear_6110_200)"/>
<path d="M8.4052 21.6707C8.26495 21.5937 8.14153 21.488 8.04253 21.3603C7.94353 21.2325 7.87104 21.0854 7.8295 20.9278C7.78796 20.7703 7.77827 20.6057 7.801 20.4442C7.82373 20.2827 7.87842 20.1276 7.9617 19.9886C8.06702 19.8049 8.22075 19.6555 8.4052 19.5576C8.58492 19.4639 8.78225 19.4111 8.98368 19.4029C9.18511 19.3946 9.3859 19.431 9.57235 19.5097C9.72883 19.5762 9.86707 19.681 9.97501 19.815L9.63655 20.1382C9.56593 20.05 9.47671 19.9794 9.37562 19.9317C9.27454 19.884 9.16422 19.8605 9.05298 19.8629C8.92082 19.8626 8.7906 19.8955 8.67366 19.9586C8.56472 20.0214 8.47561 20.1149 8.41688 20.228C8.35556 20.347 8.32349 20.4795 8.32349 20.6141C8.32349 20.7487 8.35556 20.8813 8.41688 21.0002C8.47561 21.1134 8.56472 21.2069 8.67366 21.2696C8.7906 21.3328 8.92082 21.3657 9.05298 21.3654C9.16483 21.368 9.27574 21.3439 9.377 21.2951C9.47825 21.2463 9.5671 21.174 9.63655 21.0841L9.97501 21.4073C9.86898 21.5447 9.73033 21.6519 9.57235 21.7186C9.3859 21.7972 9.18511 21.8337 8.98368 21.8254C8.78225 21.8172 8.58492 21.7644 8.4052 21.6707Z" fill="#87889B"/>
<path d="M21.6348 21.7845V20.3537L20.9579 21.551H20.7244L20.0533 20.4196V21.7964H19.5573V19.4558H19.9716L20.8236 20.9105L21.6698 19.4558H22.1017V21.7964L21.6348 21.7845Z" fill="#87889B"/>
<path d="M26.1867 21.551C26.0915 21.445 26.0182 21.3203 25.971 21.1846C25.9239 21.0488 25.904 20.9047 25.9124 20.7608V19.4498H26.4434V20.7428C26.4434 21.1419 26.6127 21.3515 26.9511 21.3714C27.0216 21.3754 27.0921 21.3635 27.1576 21.3366C27.2231 21.3097 27.2821 21.2685 27.3305 21.2158C27.4275 21.0792 27.4731 20.9112 27.4589 20.7428V19.4498H27.9841V20.7608C27.9773 20.9712 27.9122 21.1753 27.7964 21.3491C27.6807 21.5229 27.519 21.6593 27.3303 21.7422C27.1417 21.8251 26.9339 21.8512 26.7314 21.8173C26.5288 21.7835 26.3399 21.6911 26.1867 21.551Z" fill="#87889B"/>
<path d="M33.8606 19.4438V21.7845H33.423L32.285 20.3537V21.7725H31.7656V19.4318H32.2267L33.3588 20.8506V19.4318L33.8606 19.4438Z" fill="#87889B"/>
<path d="M37.6597 19.4438H38.1908V21.7845H37.6597V19.4438Z" fill="#87889B"/>
<path d="M42.4508 21.6707C42.2699 21.5678 42.1173 21.4195 42.0073 21.2397C41.9041 21.0482 41.85 20.833 41.85 20.6141C41.85 20.3953 41.9041 20.1801 42.0073 19.9886C42.1152 19.8071 42.2683 19.6583 42.4508 19.5576C42.6475 19.4536 42.8657 19.4002 43.0869 19.4019C43.2713 19.3988 43.4542 19.4355 43.6238 19.5097C43.7794 19.5779 43.9173 19.6824 44.0265 19.815L43.688 20.1382C43.6174 20.05 43.5282 19.9794 43.4271 19.9317C43.326 19.884 43.2157 19.8605 43.1045 19.8629C42.9722 19.8619 42.8418 19.8948 42.7251 19.9586C42.6157 20.0228 42.5251 20.1158 42.4625 20.228C42.4012 20.347 42.3692 20.4796 42.3692 20.6141C42.3692 20.7487 42.4012 20.8813 42.4625 21.0002C42.5251 21.1125 42.6157 21.2055 42.7251 21.2696C42.8418 21.3335 42.9722 21.3664 43.1045 21.3654C43.2163 21.368 43.3272 21.3439 43.4285 21.2951C43.5297 21.2463 43.6186 21.174 43.688 21.0841L44.0265 21.4073C43.9192 21.5434 43.7809 21.6503 43.6238 21.7186C43.4371 21.7961 43.2365 21.8319 43.0352 21.8236C42.834 21.8154 42.6368 21.7633 42.4567 21.6707H42.4508Z" fill="#87889B"/>
<path d="M49.1036 21.2816H48.0415L47.8372 21.7845H47.3003L48.3158 19.4438H48.8351L49.8564 21.7845H49.302L49.1036 21.2816ZM48.9343 20.8745L48.5725 19.9766L48.2107 20.8745H48.9343Z" fill="#87889B"/>
<path d="M53.7838 21.6707C53.6029 21.5678 53.4503 21.4195 53.3403 21.2397C53.2371 21.0482 53.183 20.833 53.183 20.6141C53.183 20.3953 53.2371 20.1801 53.3403 19.9886C53.4482 19.8071 53.6013 19.6583 53.7838 19.5576C53.9804 19.4536 54.1987 19.4002 54.4199 19.4019C54.6043 19.3988 54.7872 19.4355 54.9568 19.5097C55.1116 19.5793 55.2492 19.6837 55.3595 19.815L55.021 20.1382C54.9501 20.0504 54.8608 19.98 54.7598 19.9323C54.6588 19.8846 54.5486 19.8609 54.4374 19.8629C54.3052 19.8619 54.1748 19.8948 54.0581 19.9586C53.9487 20.0228 53.858 20.1158 53.7955 20.228C53.7342 20.347 53.7021 20.4796 53.7021 20.6141C53.7021 20.7487 53.7342 20.8813 53.7955 21.0002C53.858 21.1125 53.9487 21.2055 54.0581 21.2696C54.1748 21.3335 54.3052 21.3664 54.4374 21.3654C54.5492 21.3675 54.66 21.3433 54.7612 21.2945C54.8624 21.2457 54.9513 21.1737 55.021 21.0841L55.3595 21.4073C55.2509 21.5421 55.113 21.6487 54.9568 21.7186C54.7701 21.7961 54.5695 21.8319 54.3682 21.8236C54.167 21.8154 53.9697 21.7633 53.7897 21.6707H53.7838Z" fill="#87889B"/>
<path d="M58.9776 19.4438H59.5028V21.7845H58.9776V19.4438Z" fill="#87889B"/>
<path d="M71.4136 19.4438V21.7845H70.9817L69.8146 20.3657V21.7845H69.2894V19.4438H69.7271L70.865 20.8626V19.4438H71.4136Z" fill="#87889B"/>
<path d="M63.7746 21.6707C63.5881 21.5707 63.4325 21.4194 63.3253 21.2337C63.2181 21.0457 63.1616 20.8319 63.1616 20.6141C63.1616 20.3964 63.2181 20.1825 63.3253 19.9946C63.4325 19.8089 63.5881 19.6576 63.7746 19.5576C63.9729 19.4554 64.1917 19.4022 64.4136 19.4022C64.6355 19.4022 64.8543 19.4554 65.0526 19.5576C65.2359 19.6599 65.389 19.8108 65.4961 19.9946C65.6033 20.1825 65.6598 20.3964 65.6598 20.6141C65.6598 20.8319 65.6033 21.0457 65.4961 21.2337C65.389 21.4174 65.2359 21.5683 65.0526 21.6707C64.8543 21.7729 64.6355 21.8261 64.4136 21.8261C64.1917 21.8261 63.9729 21.7729 63.7746 21.6707ZM64.7783 21.2696C64.8859 21.2051 64.9746 21.112 65.0351 21.0002C65.0964 20.8813 65.1285 20.7487 65.1285 20.6141C65.1285 20.4795 65.0964 20.347 65.0351 20.228C64.9746 20.1162 64.8859 20.0232 64.7783 19.9586C64.6656 19.8955 64.5391 19.8626 64.4107 19.8629C64.2841 19.8626 64.1595 19.8955 64.0489 19.9586C63.9413 20.0232 63.8526 20.1162 63.7921 20.228C63.7308 20.347 63.6987 20.4795 63.6987 20.6141C63.6987 20.7487 63.7308 20.8813 63.7921 21.0002C63.8526 21.112 63.9413 21.2051 64.0489 21.2696C64.1595 21.3327 64.2841 21.3657 64.4107 21.3654C64.5391 21.3657 64.6656 21.3327 64.7783 21.2696ZM64.5566 18.7734H65.1051L64.5216 19.2523H64.1247L64.5566 18.7734Z" fill="#87889B"/>
<defs>
<linearGradient id="paint0_linear_6110_200" x1="39.5096" y1="22" x2="39.5096" y2="0.0244286" gradientUnits="userSpaceOnUse">
<stop stop-color="#D72173"/>
<stop offset="0.36" stop-color="#D32879"/>
<stop offset="0.87" stop-color="#C63B8B"/>
<stop offset="1" stop-color="#C24191"/>
</linearGradient>
</defs>
</svg>
