<svg xmlns="http://www.w3.org/2000/svg" width="34" height="34" viewBox="0 0 34 34" fill="none">
  <path d="M33.6812 13.6003C33.0118 9.8327 31.0107 6.428 28.0399 4.00198C26.2671 2.46742 24.1838 1.33037 21.9311 0.667945C19.6785 0.0055183 17.3091 -0.166801 14.9837 0.162642C11.6322 0.532922 8.48394 1.94833 5.98835 4.20675C3.10971 6.72046 1.17428 10.1338 0.499483 13.8869C-0.175311 17.64 0.450589 21.5101 2.27455 24.8624C2.33319 24.9571 2.37045 25.0634 2.38377 25.1739C2.39708 25.2844 2.38612 25.3964 2.35165 25.5023L1.22082 29.572L0.796746 31.1461C0.603988 31.8756 0.398378 32.6178 0.19277 33.3473L0 34L8.75122 31.7092C8.92861 31.6387 9.1264 31.6387 9.30379 31.7092C11.7625 32.9746 14.4906 33.6329 17.2583 33.6289C17.5279 33.6458 17.7983 33.6458 18.0679 33.6289H18.7746C19.0114 33.6159 19.2474 33.5903 19.4814 33.5521C21.7548 33.2254 23.9378 32.4417 25.8975 31.2485C27.8573 30.0553 29.5528 28.4776 30.881 26.6113C32.2093 24.745 33.1425 22.6292 33.6239 20.3924C34.1053 18.1557 34.1248 15.8448 33.6812 13.6003ZM27.256 22.0212C27.196 23.1958 26.6772 24.3005 25.8104 25.0992C24.9435 25.8979 23.7974 26.3273 22.6169 26.2957H22.1158C20.9093 26.2236 19.7275 25.9239 18.6333 25.4127L18.2349 25.2719C14.8658 23.8633 11.9625 21.5395 9.85637 18.5659C8.89422 17.4104 8.11425 16.1158 7.54327 14.7265C7.0824 13.6557 6.9585 12.4708 7.18793 11.3283C7.41736 10.1859 7.98933 9.13959 8.82832 8.32764C9.03996 8.10501 9.295 7.92774 9.57783 7.80671C9.86067 7.68568 10.1653 7.6234 10.4732 7.62374C10.8844 7.62374 11.2185 7.62376 11.5398 7.68775C11.7369 7.71459 11.9219 7.7978 12.0724 7.92728C12.223 8.05676 12.3326 8.22696 12.3879 8.41723C12.5421 8.76277 12.6835 9.12109 12.8248 9.47943C13.0838 10.1935 13.3885 10.8903 13.7372 11.5655C14.0026 11.9742 14.111 12.4646 14.0425 12.9465C13.974 13.4284 13.7333 13.8696 13.3646 14.189C13.2393 14.3183 13.1273 14.4598 13.0304 14.6114C12.9366 14.7422 12.8336 14.8662 12.722 14.9825C12.6155 15.1 12.5565 15.2528 12.5565 15.4112C12.5565 15.5696 12.6155 15.7224 12.722 15.8399C14.0417 18.1371 16.0441 19.9703 18.4534 21.087H18.569C19.8541 21.6501 19.8541 21.6501 20.4709 20.8439L20.7279 20.5367C20.9207 20.3064 21.1006 20.0888 21.2676 19.8584L21.6146 19.4105C21.6707 19.3085 21.7469 19.2187 21.8385 19.1464C21.9301 19.0742 22.0353 19.021 22.148 18.9899C22.2606 18.9589 22.3783 18.9507 22.4942 18.9658C22.6101 18.9809 22.7217 19.019 22.8225 19.0778C24.1076 19.5897 25.3926 20.2296 26.4849 20.8055L26.9347 21.0358C27.0842 21.1467 27.1953 21.3011 27.2529 21.4776C27.3104 21.6541 27.3115 21.8441 27.256 22.0212Z" fill="#FF5E00"/>
</svg>