<svg width="19" height="19" viewBox="0 0 19 19" fill="none" xmlns="http://www.w3.org/2000/svg">
<path d="M0.0341609 9.48486C0.0341609 7.13038 0.0341609 4.78161 0.0341609 2.42714C0.0256618 1.83985 0.231525 1.26965 0.613116 0.823553C0.994706 0.377453 1.52579 0.0861195 2.10667 0.00425716C2.20528 -0.00141905 2.30414 -0.00141905 2.40275 0.00425716H16.637C16.9478 0.00274687 17.2557 0.0629181 17.5431 0.181279C17.8304 0.299641 18.0915 0.473842 18.3112 0.693835C18.5309 0.913828 18.7049 1.17525 18.8231 1.46297C18.9414 1.7507 19.0014 2.05901 18.9999 2.37013V16.6224C19.0023 16.9371 18.9417 17.2492 18.8218 17.5402C18.7018 17.8312 18.525 18.0951 18.3016 18.3167C18.0783 18.5382 17.8129 18.7127 17.5212 18.83C17.2294 18.9473 16.9172 19.005 16.6029 18.9997C15.4983 18.9997 14.388 18.9997 13.2778 18.9997C13.0272 18.9997 13.0272 18.9997 13.0272 18.7602C13.0272 16.7383 13.0272 14.7145 13.0272 12.6888C13.0272 12.4949 13.0899 12.4493 13.2721 12.455C13.7162 12.455 14.1603 12.455 14.6044 12.455C14.6642 12.4627 14.7249 12.4484 14.7751 12.4149C14.8253 12.3814 14.8617 12.3309 14.8777 12.2726C15.2136 11.4175 15.5552 10.5623 15.8969 9.71289C15.9709 9.51906 15.9709 9.51335 15.7659 9.51335C14.9346 9.51335 14.1033 9.51335 13.2664 9.51335C13.0842 9.51335 13.0215 9.46206 13.0272 9.27393C13.0272 8.57271 13.0272 7.8658 13.0272 7.16459C13.0272 6.73132 13.2208 6.53178 13.6592 6.52038H15.1908C15.3389 6.52038 15.3958 6.48048 15.3958 6.32655C15.3958 5.47142 15.3958 4.61629 15.3958 3.76685C15.3958 3.64143 15.3958 3.57873 15.2193 3.57873C14.4108 3.57873 13.608 3.54453 12.7995 3.61294C12.1355 3.64736 11.4956 3.87345 10.9571 4.26393C10.4186 4.6544 10.0045 5.19256 9.76472 5.81348C9.58117 6.27364 9.49209 6.76612 9.50281 7.26151C9.50281 7.90571 9.50281 8.55562 9.50281 9.20552C9.50281 9.50767 9.50281 9.50766 9.20674 9.50766H7.35628C7.19116 9.50766 7.12853 9.54187 7.12853 9.7186C7.12853 10.5566 7.12853 11.4004 7.12853 12.2384C7.12853 12.4037 7.17978 12.4493 7.3392 12.4493C7.98829 12.4493 8.63737 12.4493 9.28076 12.4493C9.45157 12.4493 9.50281 12.4949 9.50281 12.666C9.50281 14.7069 9.50281 16.744 9.50281 18.7773C9.50281 18.9483 9.45157 18.9997 9.28645 18.9997H2.27749C1.68022 18.9784 1.11318 18.7313 0.690581 18.3082C0.267983 17.8851 0.0212246 17.3173 0 16.7193C0 14.3135 0 11.9077 0 9.50196L0.0341609 9.48486Z" fill="#213975"/>
</svg>
