<svg width="19" height="19" viewBox="0 0 19 19" fill="none" xmlns="http://www.w3.org/2000/svg">
<path d="M0.00185084 9.48004V5.35338C-0.0214389 4.48377 0.175392 3.62238 0.574065 2.84914C0.972739 2.0759 1.56033 1.41587 2.28232 0.930327C3.09683 0.335789 4.07881 0.0145375 5.0873 0.0126662C8.03481 0.0126662 10.9766 -0.0158328 13.9241 0.0126662C14.6873 0.0174822 15.439 0.197881 16.1212 0.539874C16.8034 0.881867 17.3976 1.37627 17.858 1.9848C18.6263 2.93431 19.0307 4.12675 18.9982 5.34768C18.9982 8.12349 18.9982 10.8993 18.9982 13.6751C19.0078 14.791 18.663 15.8811 18.0135 16.7886C17.3639 17.6961 16.4431 18.3741 15.3836 18.7251C14.905 18.8922 14.4025 18.9808 13.8956 18.9873C10.9652 18.9873 8.03481 19.0158 5.1044 18.9873C3.72574 18.9485 2.4177 18.369 1.46293 17.3739C0.508165 16.3788 -0.0166655 15.0482 0.00185084 13.6694C0.00755202 12.2843 0.00185084 10.8765 0.00185084 9.48004ZM9.51142 1.734H5.37807C5.1628 1.73118 4.94759 1.74261 4.73383 1.7682C3.92016 1.88529 3.1735 2.2845 2.62432 2.89605C2.07514 3.50761 1.75835 4.29265 1.72931 5.114C1.72931 8.0266 1.72931 10.9392 1.72931 13.8518C1.73196 13.9873 1.74339 14.1225 1.76351 14.2565C1.87849 15.0709 2.27715 15.8186 2.88931 16.3681C3.50147 16.9175 4.28788 17.2335 5.11011 17.2603C8.02341 17.2603 10.9367 17.2603 13.85 17.2603C13.9855 17.2574 14.1207 17.246 14.2548 17.2261C15.0685 17.109 15.8151 16.7098 16.3643 16.0982C16.9135 15.4867 17.2303 14.7016 17.2593 13.8803C17.2593 10.962 17.2593 8.04939 17.2593 5.13679C17.2333 4.25066 16.8745 3.40682 16.2544 2.77313C15.6343 2.13944 14.7983 1.76235 13.9127 1.7169C12.4475 1.7226 10.9595 1.734 9.51142 1.734Z" fill="#213975"/>
<path d="M14.3802 9.49713C14.3814 10.4674 14.0945 11.4161 13.5559 12.2232C13.0173 13.0303 12.2513 13.6594 11.3548 14.031C10.4584 14.4025 9.47176 14.4997 8.51999 14.3103C7.56821 14.1209 6.69406 13.6534 6.00825 12.9669C5.32244 12.2805 4.8558 11.406 4.66744 10.4542C4.47909 9.50246 4.57747 8.51622 4.95015 7.62039C5.32283 6.72457 5.95304 5.95946 6.76096 5.42196C7.56888 4.88446 8.51817 4.59874 9.48862 4.601C10.7865 4.60251 12.0307 5.11903 12.9479 6.03707C13.865 6.95511 14.3802 8.19958 14.3802 9.49713ZM6.30166 9.49713C6.30279 10.1246 6.48984 10.7376 6.83921 11.2588C7.18858 11.78 7.68459 12.1861 8.26462 12.4257C8.84464 12.6652 9.48267 12.7276 10.0981 12.6049C10.7136 12.4823 11.2789 12.18 11.7227 11.7364C12.1664 11.2927 12.4688 10.7275 12.5915 10.1122C12.7142 9.49688 12.6518 8.85902 12.4121 8.27914C12.1725 7.69925 11.7664 7.20335 11.245 6.85406C10.7237 6.50478 10.1105 6.31777 9.48292 6.31665C9.06547 6.31664 8.65214 6.39921 8.26676 6.55961C7.88137 6.72001 7.53154 6.95506 7.23742 7.25123C6.9433 7.5474 6.71071 7.89883 6.55304 8.28526C6.39538 8.6717 6.31575 9.0855 6.31876 9.50284L6.30166 9.49713Z" fill="#213975"/>
<path d="M14.5912 5.67257C14.4265 5.67257 14.2634 5.64014 14.1112 5.57713C13.959 5.51411 13.8207 5.42174 13.7043 5.3053C13.5878 5.18886 13.4954 5.05062 13.4324 4.89848C13.3694 4.74634 13.3369 4.58329 13.3369 4.41862C13.3369 4.25395 13.3694 4.09088 13.4324 3.93874C13.4954 3.78661 13.5878 3.64838 13.7043 3.53194C13.8207 3.4155 13.959 3.32312 14.1112 3.2601C14.2634 3.19708 14.4265 3.16466 14.5912 3.16466C14.9238 3.16466 15.2428 3.29678 15.4781 3.53194C15.7133 3.7671 15.8454 4.08605 15.8454 4.41862C15.8454 4.75119 15.7133 5.07014 15.4781 5.3053C15.2428 5.54047 14.9238 5.67257 14.5912 5.67257Z" fill="#213975"/>
</svg>
