<svg width="20" height="15" viewBox="0 0 20 15" fill="none" xmlns="http://www.w3.org/2000/svg">
<path d="M17.7094 0.00467612H2.29014C1.98479 -0.0154813 1.67865 0.0296863 1.3922 0.137164C1.10576 0.244641 0.845635 0.411961 0.629243 0.627886C0.41285 0.843811 0.245192 1.10337 0.137482 1.3892C0.0297723 1.67502 -0.0155163 1.9805 0.00468473 2.2852V12.7148C-0.0142636 13.0192 0.031887 13.3241 0.14004 13.6094C0.248193 13.8946 0.415884 14.1537 0.63201 14.3694C0.848135 14.585 1.10775 14.7524 1.39362 14.8603C1.67949 14.9682 1.98508 15.0142 2.29014 14.9953H17.7094C18.0147 15.0155 18.3209 14.9703 18.6073 14.8628C18.8938 14.7554 19.1539 14.5881 19.3703 14.3721C19.5867 14.1562 19.7544 13.8966 19.8621 13.6108C19.9698 13.325 20.015 13.0195 19.9948 12.7148V2.3004C20.0161 1.99477 19.9716 1.68815 19.8645 1.40105C19.7573 1.11395 19.59 0.852983 19.3736 0.635634C19.1572 0.418285 18.8968 0.249551 18.6098 0.140736C18.3228 0.031922 18.0158 -0.0144593 17.7094 0.00467612ZM18.7759 4.17044V12.4868C18.7821 12.7082 18.7512 12.9292 18.6845 13.1405L13.3518 7.30236C15.0202 6.1697 16.7114 5.05983 18.395 3.94238C18.5017 3.87396 18.6083 3.72953 18.7302 3.78275C18.8521 3.83596 18.7759 4.03361 18.7759 4.17044ZM1.3912 1.69987C1.49449 1.5494 1.63722 1.43012 1.8038 1.35505C1.97038 1.27998 2.15445 1.25201 2.33587 1.27418H17.6332C17.8399 1.24456 18.0507 1.27988 18.2363 1.37523C18.422 1.47059 18.5733 1.62123 18.6693 1.80629C18.6984 1.84908 18.7179 1.89769 18.7263 1.94873C18.7348 1.99977 18.7321 2.05203 18.7183 2.10191C18.7045 2.15179 18.6801 2.1981 18.6466 2.23762C18.6132 2.27714 18.5715 2.30893 18.5245 2.33081C16.0258 3.98039 13.5422 5.64517 11.0358 7.29475C10.7192 7.51553 10.3404 7.6301 9.95421 7.6219C9.56802 7.6137 9.19444 7.48316 8.8875 7.24914C6.43444 5.62237 3.989 3.988 1.52832 2.36883C1.20836 2.15598 1.25407 1.96594 1.3912 1.69987ZM1.28456 3.79794C1.42931 3.70672 1.55881 3.89677 1.6807 3.97279C3.41003 5.12065 5.14697 6.25332 6.86869 7.42399L1.30741 13.1025C1.24341 12.8985 1.21505 12.6851 1.2236 12.4715V4.23125C1.25407 4.07921 1.14743 3.87396 1.25408 3.79794H1.28456ZM17.5342 13.7182H2.45014C2.23065 13.7252 2.01159 13.6943 1.80259 13.627L7.47053 7.83447C7.6686 7.9713 7.86667 8.09294 8.05712 8.22977C8.63026 8.62166 9.30878 8.83138 10.0036 8.83138C10.6983 8.83138 11.3769 8.62166 11.95 8.22977L12.7119 7.71286L18.1512 13.6422C17.9513 13.7021 17.7427 13.7278 17.5342 13.7182Z" fill="#213975"/>
</svg>
