<svg width="20" height="13" viewBox="0 0 20 13" fill="none" xmlns="http://www.w3.org/2000/svg">
<path d="M3.41403 2.01683C3.5418 2.01938 3.66743 1.98326 3.7749 1.91307C5.23818 0.912347 6.9175 0.284194 8.67068 0.0817903C11.2938 -0.23946 13.9443 0.391965 16.1527 1.86423C16.2766 1.94933 16.4241 1.9921 16.5737 1.98632H19.8155C19.8636 1.98632 19.9298 1.98632 19.9538 2.04126C19.9779 2.09619 19.9177 2.12061 19.8877 2.15113L19.1659 2.9569C18.9494 3.19496 18.7329 3.43914 18.5103 3.665C18.4081 3.77487 18.3961 3.84203 18.5103 3.95801C19.0299 4.47139 19.4314 5.09484 19.6861 5.78389C19.9408 6.47293 20.0425 7.21056 19.9839 7.9441C19.8984 9.06608 19.4507 10.1281 18.7102 10.9657C17.9698 11.8033 16.9778 12.3698 15.888 12.5772C15.159 12.7192 14.4078 12.6924 13.6904 12.499C12.9729 12.3056 12.3076 11.9505 11.7441 11.4601C11.6178 11.3564 11.5396 11.3503 11.4253 11.4601C11.0043 11.9424 10.5652 12.4124 10.1382 12.8947C10.0179 13.0289 9.93972 13.0412 9.81943 12.8947C9.40443 12.4246 8.98342 11.9668 8.56842 11.509C8.37596 11.3014 8.37596 11.3014 8.16545 11.4724C7.17216 12.2302 5.93709 12.5868 4.69952 12.4731C3.46195 12.3595 2.30999 11.7837 1.46683 10.8572C0.623673 9.93082 0.14934 8.71975 0.13573 7.45865C0.122119 6.19755 0.570203 4.9762 1.39316 4.03126C1.5736 3.84202 1.5736 3.84812 1.39316 3.64668L0.0820145 2.20606C0.0459276 2.16334 -0.0262522 2.12672 0.00983459 2.05957C0.0459214 1.99242 0.112083 2.01683 0.172228 2.01683H3.41403ZM14.9798 4.20217C14.3173 4.20217 13.6696 4.40159 13.1187 4.77519C12.5677 5.1488 12.1384 5.67981 11.8848 6.30109C11.6312 6.92238 11.5649 7.60602 11.6942 8.26557C11.8234 8.92512 12.1425 9.53096 12.611 10.0065C13.0795 10.482 13.6764 10.8058 14.3263 10.937C14.9761 11.0682 15.6497 11.0009 16.2619 10.7435C16.874 10.4862 17.3972 10.0504 17.7653 9.49123C18.1334 8.93209 18.3299 8.27473 18.3299 7.60226C18.3323 7.15507 18.2473 6.71184 18.0798 6.29823C17.9123 5.88461 17.6656 5.50882 17.354 5.19261C17.0425 4.8764 16.6722 4.62606 16.2647 4.45605C15.8572 4.28604 15.4205 4.19975 14.9798 4.20217ZM8.32785 7.61446C8.3314 6.94106 8.13819 6.28169 7.77265 5.71969C7.40711 5.15769 6.88564 4.71827 6.27412 4.45696C5.66261 4.19565 4.98849 4.12415 4.33697 4.25154C3.68544 4.37893 3.08573 4.69948 2.61363 5.17266C2.14153 5.64584 1.81822 6.25042 1.68455 6.91003C1.55089 7.56964 1.61286 8.25466 1.86265 8.87853C2.11244 9.50241 2.53882 10.0371 3.08793 10.4151C3.63704 10.7932 4.28423 10.9975 4.94772 11.0023C5.39004 11.0096 5.82936 10.9273 6.23995 10.7602C6.65055 10.5931 7.02416 10.3445 7.33892 10.029C7.65369 9.71348 7.90329 9.33745 8.07309 8.92285C8.2429 8.50826 8.3295 8.06345 8.32785 7.61446ZM6.28293 2.47465C7.2199 2.84667 8.0567 3.43868 8.7248 4.20217C9.39126 4.96549 9.82391 5.90948 9.96979 6.91856C10.3728 4.71492 11.702 3.35368 13.6567 2.46856C11.2904 1.50302 8.64764 1.5052 6.28293 2.47465Z" fill="#213975"/>
<path d="M13.1755 7.60226C13.1755 7.24007 13.2813 6.886 13.4796 6.58485C13.6779 6.2837 13.9597 6.04898 14.2894 5.91038C14.6191 5.77177 14.9819 5.73549 15.3319 5.80615C15.6819 5.87681 16.0034 6.05123 16.2557 6.30734C16.5081 6.56345 16.6799 6.88975 16.7495 7.24498C16.8191 7.60021 16.7834 7.96843 16.6468 8.30306C16.5103 8.63768 16.279 8.92368 15.9823 9.1249C15.6856 9.32613 15.3367 9.43354 14.9799 9.43354C14.5013 9.43354 14.0424 9.2406 13.704 8.89716C13.3656 8.55373 13.1755 8.08795 13.1755 7.60226Z" fill="#213975"/>
<path d="M5.00185 5.77098C5.35871 5.77098 5.70757 5.87838 6.00429 6.07961C6.30101 6.28083 6.53228 6.56683 6.66884 6.90145C6.80541 7.23608 6.84114 7.60429 6.77152 7.95953C6.7019 8.31476 6.53005 8.64106 6.27771 8.89717C6.02537 9.15328 5.70386 9.3277 5.35386 9.39836C5.00385 9.46902 4.64105 9.43275 4.31135 9.29415C3.98165 9.15554 3.69985 8.92081 3.50159 8.61966C3.30333 8.31851 3.19751 7.96446 3.19751 7.60227C3.19751 7.11658 3.38761 6.65078 3.72599 6.30734C4.06437 5.96391 4.52331 5.77098 5.00185 5.77098Z" fill="#213975"/>
</svg>
