<svg width="25" height="25" viewBox="0 0 25 25" fill="none" xmlns="http://www.w3.org/2000/svg">
<path d="M12.2 24.4C18.9379 24.4 24.4 18.9379 24.4 12.2C24.4 5.46213 18.9379 0 12.2 0C5.46213 0 0 5.46213 0 12.2C0 18.9379 5.46213 24.4 12.2 24.4Z" fill="#87889B"/>
<path d="M14.912 17.912C14.8287 18.0707 14.7125 18.2097 14.571 18.3197C14.4296 18.4298 14.2662 18.5083 14.0919 18.5499C13.9177 18.5916 13.7365 18.5955 13.5605 18.5614C13.3846 18.5272 13.218 18.4558 13.072 18.352C12.984 18.28 12.896 18.208 12.816 18.128L7.848 13.168C7.70855 13.0467 7.59701 12.8967 7.52106 12.7282C7.44511 12.5597 7.40653 12.3768 7.408 12.192C7.40469 12.005 7.4432 11.8196 7.52071 11.6493C7.59821 11.4791 7.71276 11.3283 7.856 11.208L12.176 6.87999L12.888 6.17599C13.0422 6.01343 13.2369 5.89481 13.4521 5.83226C13.6673 5.76971 13.8952 5.76549 14.1126 5.82003C14.3299 5.87457 14.5289 5.9859 14.689 6.14264C14.8492 6.29937 14.9648 6.49588 15.024 6.712C15.083 6.90978 15.089 7.11963 15.0413 7.32044C14.9935 7.52126 14.8938 7.70595 14.752 7.85599C14.552 8.07999 14.336 8.28801 14.12 8.49601C12.9573 9.66401 11.7947 10.8267 10.632 11.984C10.448 12.168 10.448 12.168 10.632 12.352L14.632 16.352C14.8496 16.5411 14.996 16.7989 15.0469 17.0827C15.0978 17.3664 15.0502 17.659 14.912 17.912Z" fill="white"/>
</svg>
