<svg width="24" height="23" viewBox="0 0 24 23" fill="none" xmlns="http://www.w3.org/2000/svg">
<path d="M4.8 13.8H14.4V11.5H4.8V13.8ZM4.8 10.35H19.2V8.05H4.8V10.35ZM4.8 6.9H19.2V4.6H4.8V6.9ZM0 23V2.3C0 1.6675 0.235 1.12604 0.705 0.675625C1.175 0.225208 1.74 0 2.4 0H21.6C22.26 0 22.825 0.225208 23.295 0.675625C23.765 1.12604 24 1.6675 24 2.3V16.1C24 16.7325 23.765 17.274 23.295 17.7244C22.825 18.1748 22.26 18.4 21.6 18.4H4.8L0 23ZM3.78 16.1H21.6V2.3H2.4V17.3937L3.78 16.1Z" fill="white"/>
</svg>
