<svg width="124" height="68" viewBox="0 0 124 68" fill="none" xmlns="http://www.w3.org/2000/svg">
<path d="M4.986 61.4391C4.11 61.4391 3.24 61.3251 2.376 61.0971C1.524 60.8571 0.792 60.5211 0.18 60.0891L1.332 57.8571C1.812 58.2051 2.364 58.4811 2.988 58.6851C3.624 58.8891 4.266 58.9911 4.914 58.9911C5.646 58.9911 6.222 58.8471 6.642 58.5591C7.062 58.2711 7.272 57.8691 7.272 57.3531C7.272 57.0291 7.188 56.7411 7.02 56.4891C6.852 56.2371 6.552 56.0451 6.12 55.9131C5.7 55.7811 5.106 55.7151 4.338 55.7151H1.116L1.764 48.6231H9.45V50.9631H2.808L4.32 49.6311L3.87 54.6891L2.358 53.3571H5.022C6.27 53.3571 7.272 53.5311 8.028 53.8791C8.796 54.2151 9.354 54.6771 9.702 55.2651C10.05 55.8531 10.224 56.5191 10.224 57.2631C10.224 58.0071 10.038 58.6971 9.666 59.3331C9.294 59.9571 8.718 60.4671 7.938 60.8631C7.17 61.2471 6.186 61.4391 4.986 61.4391ZM12.2112 61.2231V59.3331L17.0712 54.7431C17.4552 54.3951 17.7372 54.0831 17.9172 53.8071C18.0972 53.5311 18.2172 53.2791 18.2772 53.0511C18.3492 52.8231 18.3852 52.6131 18.3852 52.4211C18.3852 51.9171 18.2112 51.5331 17.8632 51.2691C17.5272 50.9931 17.0292 50.8551 16.3692 50.8551C15.8412 50.8551 15.3492 50.9571 14.8932 51.1611C14.4492 51.3651 14.0712 51.6831 13.7592 52.1151L11.6352 50.7471C12.1152 50.0271 12.7872 49.4571 13.6512 49.0371C14.5152 48.6171 15.5112 48.4071 16.6392 48.4071C17.5752 48.4071 18.3912 48.5631 19.0872 48.8751C19.7952 49.1751 20.3412 49.6011 20.7252 50.1531C21.1212 50.7051 21.3192 51.3651 21.3192 52.1331C21.3192 52.5411 21.2652 52.9491 21.1572 53.3571C21.0612 53.7531 20.8572 54.1731 20.5452 54.6171C20.2452 55.0611 19.8012 55.5591 19.2132 56.1111L15.1812 59.9091L14.6232 58.8471H21.7332V61.2231H12.2112ZM30.826 61.2231V48.6231H36.28C37.408 48.6231 38.38 48.8091 39.196 49.1811C40.012 49.5411 40.642 50.0631 41.086 50.7471C41.53 51.4311 41.752 52.2471 41.752 53.1951C41.752 54.1311 41.53 54.9411 41.086 55.6251C40.642 56.2971 40.012 56.8131 39.196 57.1731C38.38 57.5331 37.408 57.7131 36.28 57.7131H32.446L33.742 56.4351V61.2231H30.826ZM38.836 61.2231L35.686 56.6511H38.8L41.986 61.2231H38.836ZM33.742 56.7591L32.446 55.3911H36.118C37.018 55.3911 37.69 55.1991 38.134 54.8151C38.578 54.4191 38.8 53.8791 38.8 53.1951C38.8 52.4991 38.578 51.9591 38.134 51.5751C37.69 51.1911 37.018 50.9991 36.118 50.9991H32.446L33.742 49.6131V56.7591ZM47.7444 53.6991H53.8104V55.9671H47.7444V53.6991ZM47.9604 58.8831H54.8184V61.2231H45.0624V48.6231H54.5844V50.9631H47.9604V58.8831ZM62.2785 61.4391C61.2705 61.4391 60.3045 61.3071 59.3805 61.0431C58.4565 60.7671 57.7125 60.4131 57.1485 59.9811L58.1385 57.7851C58.6785 58.1691 59.3145 58.4871 60.0465 58.7391C60.7905 58.9791 61.5405 59.0991 62.2965 59.0991C62.8725 59.0991 63.3345 59.0451 63.6825 58.9371C64.0425 58.8171 64.3065 58.6551 64.4745 58.4511C64.6425 58.2471 64.7265 58.0131 64.7265 57.7491C64.7265 57.4131 64.5945 57.1491 64.3305 56.9571C64.0665 56.7531 63.7185 56.5911 63.2865 56.4711C62.8545 56.3391 62.3745 56.2191 61.8465 56.1111C61.3305 55.9911 60.8085 55.8471 60.2805 55.6791C59.7645 55.5111 59.2905 55.2951 58.8585 55.0311C58.4265 54.7671 58.0725 54.4191 57.7965 53.9871C57.5325 53.5551 57.4005 53.0031 57.4005 52.3311C57.4005 51.6111 57.5925 50.9571 57.9765 50.3691C58.3725 49.7691 58.9605 49.2951 59.7405 48.9471C60.5325 48.5871 61.5225 48.4071 62.7105 48.4071C63.5025 48.4071 64.2825 48.5031 65.0505 48.6951C65.8185 48.8751 66.4965 49.1511 67.0845 49.5231L66.1845 51.7371C65.5965 51.4011 65.0085 51.1551 64.4205 50.9991C63.8325 50.8311 63.2565 50.7471 62.6925 50.7471C62.1285 50.7471 61.6665 50.8131 61.3065 50.9451C60.9465 51.0771 60.6885 51.2511 60.5325 51.4671C60.3765 51.6711 60.2985 51.9111 60.2985 52.1871C60.2985 52.5111 60.4305 52.7751 60.6945 52.9791C60.9585 53.1711 61.3065 53.3271 61.7385 53.4471C62.1705 53.5671 62.6445 53.6871 63.1605 53.8071C63.6885 53.9271 64.2105 54.0651 64.7265 54.2211C65.2545 54.3771 65.7345 54.5871 66.1665 54.8511C66.5985 55.1151 66.9465 55.4631 67.2105 55.8951C67.4865 56.3271 67.6245 56.8731 67.6245 57.5331C67.6245 58.2411 67.4265 58.8891 67.0305 59.4771C66.6345 60.0651 66.0405 60.5391 65.2485 60.8991C64.4685 61.2591 63.4785 61.4391 62.2785 61.4391ZM73.299 53.6991H79.365V55.9671H73.299V53.6991ZM73.515 58.8831H80.373V61.2231H70.617V48.6231H80.139V50.9631H73.515V58.8831ZM83.6932 61.2231V48.6231H86.1052L93.5392 57.6951H92.3692V48.6231H95.2492V61.2231H92.8552L85.4032 52.1511H86.5732V61.2231H83.6932ZM90.8212 47.6511C90.5092 47.6511 90.2332 47.5971 89.9932 47.4891C89.7532 47.3691 89.5372 47.2371 89.3452 47.0931C89.1532 46.9371 88.9732 46.8051 88.8052 46.6971C88.6372 46.5771 88.4692 46.5171 88.3012 46.5171C88.0612 46.5171 87.8632 46.6071 87.7072 46.7871C87.5512 46.9551 87.4612 47.2011 87.4372 47.5251H86.0152C86.0392 46.7211 86.2372 46.0851 86.6092 45.6171C86.9812 45.1371 87.4852 44.8971 88.1212 44.8971C88.4332 44.8971 88.7092 44.9571 88.9492 45.0771C89.1892 45.1851 89.4052 45.3171 89.5972 45.4731C89.8012 45.6291 89.9872 45.7671 90.1552 45.8871C90.3232 45.9951 90.4852 46.0491 90.6412 46.0491C90.8932 46.0491 91.0972 45.9651 91.2532 45.7971C91.4092 45.6171 91.4932 45.3771 91.5052 45.0771H92.9272C92.9152 45.8451 92.7172 46.4691 92.3332 46.9491C91.9612 47.4171 91.4572 47.6511 90.8212 47.6511ZM97.5743 61.2231L103.19 48.6231H106.07L111.704 61.2231H108.644L104.036 50.0991H105.188L100.562 61.2231H97.5743ZM100.382 58.5231L101.156 56.3091H107.636L108.428 58.5231H100.382ZM118.152 61.4391C117.144 61.4391 116.178 61.3071 115.254 61.0431C114.33 60.7671 113.586 60.4131 113.022 59.9811L114.012 57.7851C114.552 58.1691 115.188 58.4871 115.92 58.7391C116.664 58.9791 117.414 59.0991 118.17 59.0991C118.746 59.0991 119.208 59.0451 119.556 58.9371C119.916 58.8171 120.18 58.6551 120.348 58.4511C120.516 58.2471 120.6 58.0131 120.6 57.7491C120.6 57.4131 120.468 57.1491 120.204 56.9571C119.94 56.7531 119.592 56.5911 119.16 56.4711C118.728 56.3391 118.248 56.2191 117.72 56.1111C117.204 55.9911 116.682 55.8471 116.154 55.6791C115.638 55.5111 115.164 55.2951 114.732 55.0311C114.3 54.7671 113.946 54.4191 113.67 53.9871C113.406 53.5551 113.274 53.0031 113.274 52.3311C113.274 51.6111 113.466 50.9571 113.85 50.3691C114.246 49.7691 114.834 49.2951 115.614 48.9471C116.406 48.5871 117.396 48.4071 118.584 48.4071C119.376 48.4071 120.156 48.5031 120.924 48.6951C121.692 48.8751 122.37 49.1511 122.958 49.5231L122.058 51.7371C121.47 51.4011 120.882 51.1551 120.294 50.9991C119.706 50.8311 119.13 50.7471 118.566 50.7471C118.002 50.7471 117.54 50.8131 117.18 50.9451C116.82 51.0771 116.562 51.2511 116.406 51.4671C116.25 51.6711 116.172 51.9111 116.172 52.1871C116.172 52.5111 116.304 52.7751 116.568 52.9791C116.832 53.1711 117.18 53.3271 117.612 53.4471C118.044 53.5671 118.518 53.6871 119.034 53.8071C119.562 53.9271 120.084 54.0651 120.6 54.2211C121.128 54.3771 121.608 54.5871 122.04 54.8511C122.472 55.1151 122.82 55.4631 123.084 55.8951C123.36 56.3271 123.498 56.8731 123.498 57.5331C123.498 58.2411 123.3 58.8891 122.904 59.4771C122.508 60.0651 121.914 60.5391 121.122 60.8991C120.342 61.2591 119.352 61.4391 118.152 61.4391Z" fill="#213975"/>
<path d="M40.526 32.452C38.6767 32.452 36.84 32.2114 35.016 31.73C33.2173 31.2234 31.672 30.514 30.38 29.602L32.812 24.89C33.8253 25.6247 34.9907 26.2074 36.308 26.638C37.6507 27.0687 39.006 27.284 40.374 27.284C41.9193 27.284 43.1353 26.98 44.022 26.372C44.9087 25.764 45.352 24.9154 45.352 23.826C45.352 23.142 45.1747 22.534 44.82 22.002C44.4653 21.47 43.832 21.0647 42.92 20.786C42.0333 20.5074 40.7793 20.368 39.158 20.368H32.356L33.724 5.39603H49.95V10.336H35.928L39.12 7.52403L38.17 18.202L34.978 15.39H40.602C43.2367 15.39 45.352 15.7574 46.948 16.492C48.5693 17.2014 49.7473 18.1767 50.482 19.418C51.2167 20.6594 51.584 22.0654 51.584 23.636C51.584 25.2067 51.1913 26.6634 50.406 28.006C49.6207 29.3234 48.4047 30.4 46.758 31.236C45.1367 32.0467 43.0593 32.452 40.526 32.452ZM51.3456 35.796L63.8856 3.016e-05H69.1676L56.6276 35.796H51.3456ZM78.0065 32.452C76.1571 32.452 74.3205 32.2114 72.4965 31.73C70.6978 31.2234 69.1525 30.514 67.8605 29.602L70.2925 24.89C71.3058 25.6247 72.4711 26.2074 73.7885 26.638C75.1311 27.0687 76.4865 27.284 77.8545 27.284C79.3998 27.284 80.6158 26.98 81.5025 26.372C82.3891 25.764 82.8325 24.9154 82.8325 23.826C82.8325 23.142 82.6551 22.534 82.3005 22.002C81.9458 21.47 81.3125 21.0647 80.4005 20.786C79.5138 20.5074 78.2598 20.368 76.6385 20.368H69.8365L71.2045 5.39603H87.4305V10.336H73.4085L76.6005 7.52403L75.6505 18.202L72.4585 15.39H78.0825C80.7171 15.39 82.8325 15.7574 84.4285 16.492C86.0498 17.2014 87.2278 18.1767 87.9625 19.418C88.6971 20.6594 89.0645 22.0654 89.0645 23.636C89.0645 25.2067 88.6718 26.6634 87.8865 28.006C87.1011 29.3234 85.8851 30.4 84.2385 31.236C82.6171 32.0467 80.5398 32.452 78.0065 32.452Z" fill="#213975"/>
</svg>
