<svg width="39" height="39" viewBox="0 0 39 39" fill="none" xmlns="http://www.w3.org/2000/svg">
<path d="M38.6344 15.6004C37.8665 11.2787 35.5711 7.3733 32.1634 4.59051C30.1299 2.83028 27.7402 1.52601 25.1563 0.766172C22.5724 0.00632982 19.8546 -0.19133 17.1872 0.18656C13.3429 0.611293 9.73158 2.23485 6.86899 4.82539C3.56702 7.70876 1.34697 11.624 0.572937 15.9291C-0.201092 20.2341 0.516853 24.6733 2.60904 28.5186C2.67631 28.6272 2.71905 28.7492 2.73432 28.8759C2.74959 29.0026 2.73702 29.1312 2.69748 29.2526L1.40035 33.9208L0.913914 35.7264C0.69281 36.5631 0.456963 37.4146 0.221118 38.2513L0 39L10.0382 36.3723C10.2416 36.2914 10.4685 36.2914 10.672 36.3723C13.4923 37.8238 16.6216 38.5789 19.7962 38.5743C20.1055 38.5937 20.4157 38.5937 20.7249 38.5743H21.5356C21.8072 38.5594 22.0779 38.53 22.3463 38.4862C24.9541 38.1115 27.4581 37.2125 29.706 35.8438C31.9539 34.4752 33.8988 32.6654 35.4224 30.5247C36.946 28.384 38.0164 25.957 38.5686 23.3913C39.1207 20.8256 39.1431 18.1749 38.6344 15.6004ZM31.2642 25.2597C31.1954 26.607 30.6003 27.874 29.606 28.7902C28.6117 29.7064 27.2971 30.199 25.9429 30.1628H25.3681C23.9842 30.08 22.6286 29.7362 21.3734 29.1499L20.9165 28.9884C17.052 27.3726 13.7217 24.7071 11.3058 21.2961C10.2022 19.9707 9.30753 18.4857 8.65258 16.8922C8.12392 15.6639 7.9818 14.3047 8.24498 12.9943C8.50815 11.6838 9.16424 10.4836 10.1266 9.55229C10.3694 9.29692 10.6619 9.09359 10.9863 8.95476C11.3108 8.81593 11.6603 8.74449 12.0134 8.74487C12.4851 8.74487 12.8683 8.7449 13.2368 8.8183C13.4629 8.84909 13.6751 8.94453 13.8478 9.09305C14.0205 9.24157 14.1462 9.43681 14.2097 9.65506C14.3865 10.0514 14.5487 10.4624 14.7108 10.8735C15.0079 11.6926 15.3574 12.4918 15.7574 13.2663C16.0618 13.7351 16.1861 14.2976 16.1076 14.8504C16.029 15.4032 15.7529 15.9092 15.3299 16.2756C15.1862 16.4239 15.0578 16.5863 14.9467 16.7601C14.8391 16.9102 14.7209 17.0524 14.5929 17.1858C14.4707 17.3206 14.403 17.4959 14.403 17.6776C14.403 17.8593 14.4707 18.0345 14.5929 18.1693C16.1067 20.8043 18.4035 22.9071 21.1671 24.1881H21.2998C22.7738 24.834 22.7738 24.834 23.4813 23.9092L23.7761 23.5568C23.9972 23.2926 24.2036 23.043 24.3952 22.7788L24.7932 22.265C24.8576 22.148 24.945 22.0449 25.05 21.9621C25.1551 21.8792 25.2758 21.8182 25.405 21.7826C25.5342 21.747 25.6692 21.7376 25.8022 21.7549C25.9351 21.7722 26.0631 21.8159 26.1788 21.8833C27.6528 22.4705 29.1268 23.2045 30.3798 23.8651L30.8957 24.1293C31.0671 24.2565 31.1947 24.4336 31.2607 24.6361C31.3267 24.8385 31.3279 25.0565 31.2642 25.2597Z" fill="white"/>
</svg>
