<svg width="21" height="21" viewBox="0 0 21 21" fill="none" xmlns="http://www.w3.org/2000/svg">
<path d="M20.8031 8.4002C20.3897 6.07314 19.1537 3.97024 17.3187 2.47181C16.2238 1.524 14.937 0.8217 13.5457 0.412554C12.1543 0.00340834 10.6909 -0.103024 9.25465 0.100455C7.18462 0.329158 5.24008 1.20338 3.69869 2.59829C1.9207 4.15087 0.725289 6.25909 0.308504 8.57719C-0.10828 10.8953 0.278305 13.2856 1.40487 15.3562C1.44109 15.4147 1.4641 15.4803 1.47233 15.5486C1.48055 15.6168 1.47378 15.686 1.45249 15.7514L0.754033 18.265L0.492108 19.2373C0.373051 19.6878 0.246057 20.1463 0.119064 20.5969L0 21L5.40517 19.5851C5.51473 19.5415 5.63689 19.5415 5.74646 19.5851C7.26509 20.3666 8.95009 20.7733 10.6595 20.7708C10.826 20.7812 10.993 20.7812 11.1596 20.7708H11.5961C11.7423 20.7628 11.8881 20.7469 12.0326 20.7233C13.4368 20.5216 14.7851 20.0375 15.9955 19.3005C17.206 18.5636 18.2532 17.5891 19.0736 16.4364C19.894 15.2837 20.4704 13.9768 20.7677 12.5953C21.065 11.2138 21.0771 9.7865 20.8031 8.4002ZM16.8346 13.6014C16.7975 14.3268 16.4771 15.0091 15.9417 15.5024C15.4063 15.9957 14.6984 16.261 13.9693 16.2415H13.6597C12.9145 16.1969 12.1846 16.0118 11.5088 15.6961L11.2627 15.6091C9.18184 14.7391 7.38858 13.3038 6.08776 11.4672C5.49349 10.7535 5.01174 9.95386 4.65908 9.0958C4.37442 8.43439 4.29789 7.70254 4.4396 6.99691C4.58131 6.29128 4.93459 5.64504 5.45279 5.14354C5.58351 5.00603 5.74103 4.89655 5.91572 4.82179C6.09041 4.74704 6.2786 4.70857 6.46873 4.70878C6.72272 4.70878 6.92909 4.70879 7.12751 4.74832C7.24924 4.76489 7.36352 4.81629 7.4565 4.89626C7.54948 4.97623 7.61716 5.08136 7.65135 5.19888C7.7466 5.4123 7.83391 5.63362 7.92122 5.85494C8.08117 6.296 8.26939 6.72637 8.48475 7.14338C8.64864 7.39585 8.71559 7.6987 8.67331 7.99636C8.63102 8.29402 8.48235 8.56651 8.25458 8.7638C8.17721 8.84366 8.10807 8.93106 8.04821 9.02466C7.99027 9.10549 7.92662 9.18208 7.85772 9.25388C7.79191 9.3265 7.75548 9.42087 7.75548 9.51869C7.75548 9.61652 7.79191 9.71087 7.85772 9.78349C8.67284 11.2023 9.90958 12.3346 11.3977 13.0243H11.4691C12.2628 13.3721 12.2628 13.3721 12.6438 12.8742L12.8025 12.6845C12.9216 12.5422 13.0327 12.4078 13.1359 12.2655L13.3502 11.9889C13.3849 11.9258 13.4319 11.8704 13.4885 11.8257C13.5451 11.7811 13.6101 11.7482 13.6796 11.7291C13.7492 11.7099 13.8219 11.7049 13.8935 11.7142C13.965 11.7235 14.034 11.747 14.0963 11.7833C14.89 12.0995 15.6837 12.4947 16.3583 12.8504L16.6361 12.9927C16.7285 13.0612 16.7971 13.1565 16.8327 13.2656C16.8682 13.3746 16.8689 13.4919 16.8346 13.6014Z" fill="#213975"/>
</svg>
