<svg width="22" height="22" viewBox="0 0 22 22" fill="none" xmlns="http://www.w3.org/2000/svg">
<path d="M0.0803842 10.7204C0.0803842 8.38037 0.0803842 6.03037 0.0803842 3.72037C0.0668499 3.23239 0.15215 2.74673 0.331155 2.29257C0.510159 1.83842 0.779173 1.42514 1.12201 1.07764C1.46485 0.730127 1.87443 0.455579 2.32612 0.270445C2.77781 0.0853121 3.26227 -0.00656539 3.75038 0.000364792C8.50038 0.000364792 13.2404 0.000364792 17.9904 0.000364792C18.907 0.00418723 19.7875 0.358516 20.4513 0.990691C21.1151 1.62287 21.5119 2.48499 21.5604 3.40036C21.5604 3.80036 21.5604 4.20037 21.5604 4.60037C21.5604 8.89037 21.5604 13.1704 21.5604 17.4604C21.6189 17.9999 21.5556 18.5458 21.3753 19.0577C21.1949 19.5696 20.9021 20.0345 20.5183 20.4183C20.1345 20.8021 19.6696 21.0949 19.1577 21.2752C18.6458 21.4556 18.1 21.5188 17.5604 21.4604C13.0204 21.4604 8.48371 21.4604 3.95038 21.4604C3.41632 21.5077 2.87842 21.4361 2.37531 21.2508C1.87221 21.0655 1.4164 20.771 1.04064 20.3886C0.664888 20.0061 0.378518 19.5452 0.202111 19.0389C0.0257043 18.5326 -0.0363547 17.9935 0.0203866 17.4604L0.0803842 10.7204ZM10.8104 19.7204H17.8104C18.0916 19.7376 18.3732 19.6953 18.6369 19.5962C18.9006 19.497 19.1404 19.3433 19.3406 19.145C19.5407 18.9468 19.6967 18.7085 19.7984 18.4457C19.9 18.183 19.945 17.9017 19.9304 17.6204C19.9304 13.007 19.9304 8.39704 19.9304 3.79037C19.9541 3.50329 19.9155 3.21446 19.8173 2.94366C19.7191 2.67287 19.5635 2.42651 19.3613 2.2214C19.159 2.0163 18.9148 1.85729 18.6454 1.75528C18.376 1.65327 18.0878 1.61067 17.8004 1.63037C13.1337 1.63037 8.48372 1.63037 3.85039 1.63037C3.57168 1.61209 3.2923 1.65421 3.03137 1.75384C2.77044 1.85348 2.53411 2.00828 2.33852 2.20767C2.14293 2.40706 1.99269 2.64632 1.89809 2.90912C1.80349 3.17192 1.76675 3.45207 1.79038 3.73038C1.79038 8.31704 1.79038 12.907 1.79038 17.5004C1.75582 17.8025 1.79059 18.1085 1.89206 18.3951C1.99353 18.6818 2.15902 18.9415 2.37595 19.1546C2.59288 19.3676 2.85554 19.5284 3.14395 19.6248C3.43237 19.7211 3.73896 19.7503 4.04039 19.7104L10.8104 19.7204Z" fill="white"/>
<path d="M16.3804 6.36037C15.8893 5.63145 15.1934 5.0643 14.3804 4.73039C13.4311 4.33332 12.4092 4.13916 11.3804 4.16038H5.71039V17.2804H8.80038V13.6704H11.4204C12.4499 13.6885 13.4718 13.4909 14.4204 13.0904C15.0143 12.8059 15.5422 12.4004 15.97 11.8997C16.3979 11.3991 16.7162 10.8145 16.9046 10.1834C17.0929 9.55239 17.1472 8.88892 17.0638 8.23567C16.9804 7.58242 16.7612 6.95384 16.4204 6.39036L16.3804 6.36037ZM13.3104 10.5704C12.7066 11.0113 11.9661 11.2239 11.2204 11.1704H8.80038V6.62038H11.2504C11.9944 6.56825 12.7334 6.77686 13.3404 7.21037C13.5654 7.42851 13.7443 7.68964 13.8664 7.97822C13.9886 8.26681 14.0515 8.57699 14.0515 8.89036C14.0515 9.20374 13.9886 9.51395 13.8664 9.80254C13.7443 10.0911 13.5654 10.3522 13.3404 10.5704H13.3104Z" fill="white"/>
</svg>
