<svg width="31" height="24" viewBox="0 0 31 24" fill="none" xmlns="http://www.w3.org/2000/svg">
<path d="M15.4467 0.00017907C19.0007 -0.0171684 22.4517 1.22638 25.2173 3.52094C27.5759 5.48638 29.4641 7.98232 30.7361 10.8163C30.9311 11.2479 31.0204 11.722 30.9961 12.1972C30.9718 12.6724 30.8346 13.1343 30.5965 13.5424C29.7935 15.1934 28.7945 16.7356 27.6224 18.1338C26.6739 19.2808 25.5922 20.3038 24.4013 21.1799C22.4451 22.5839 20.1933 23.4916 17.8303 23.8288C15.6801 24.1478 13.4895 24.0202 11.3881 23.4535C9.41491 22.9111 7.56999 21.961 5.96593 20.6612C3.51718 18.671 1.56008 16.1147 0.253867 13.2003C0.0868193 12.8479 0 12.461 0 12.069C0 11.677 0.0868193 11.2901 0.253867 10.9377C1.68116 7.6708 3.93569 4.85778 6.78194 2.79251C8.84062 1.31646 11.2316 0.404765 13.7287 0.143664C14.2119 0.0774426 14.8347 0.0443266 15.4467 0.00017907ZM15.5111 2.63801C14.8669 2.69319 14.2226 2.72631 13.5784 2.8146C11.2022 3.14751 8.96752 4.16971 7.13625 5.76143C5.20996 7.41766 3.66286 9.49034 2.60525 11.8317C2.55203 11.97 2.55203 12.1239 2.60525 12.2622C3.35681 13.8713 4.3335 15.3586 5.50424 16.6769C6.9749 18.3682 8.81471 19.6769 10.8727 20.4957C12.9602 21.2912 15.2088 21.5341 17.4115 21.202C19.6255 20.8915 21.7192 19.9811 23.4779 18.5642C25.5785 16.8727 27.2599 14.6943 28.3847 12.207C28.4139 12.1353 28.429 12.0584 28.429 11.9807C28.429 11.903 28.4139 11.8261 28.3847 11.7544C27.8049 10.739 27.311 9.7016 26.6024 8.7414C25.2648 6.76322 23.4722 5.15563 21.3842 4.06174C19.5591 3.12912 17.5493 2.64192 15.5111 2.63801Z" fill="#213975"/>
<path d="M15.4144 18.6525C14.1413 18.6372 12.9012 18.2344 11.8506 17.4951C10.8 16.7558 9.9861 15.713 9.51165 14.4985C9.0372 13.284 8.92349 11.9523 9.18486 10.6714C9.44624 9.39048 10.071 8.21791 10.9802 7.30176C11.8894 6.38561 13.0424 5.76695 14.2934 5.5239C15.5445 5.28085 16.8375 5.42431 18.0093 5.93617C19.1811 6.44802 20.1791 7.30531 20.8772 8.39979C21.5753 9.49427 21.9423 10.7768 21.9318 12.0856C21.9248 12.9571 21.7505 13.8186 21.4189 14.6207C21.0873 15.4229 20.6049 16.1498 19.9994 16.7599C19.3939 17.37 18.6773 17.8512 17.8905 18.176C17.1037 18.5008 16.2622 18.6627 15.4144 18.6525Z" fill="#213975"/>
</svg>
