<svg width="204" height="53" viewBox="0 0 204 53" fill="none" xmlns="http://www.w3.org/2000/svg">
<path d="M93.0424 5.31664L91.5836 1.68441H90.4791L89.3051 7.52093H90.5764L91.278 4.01348L92.4797 6.89014H93.0841L95.3278 4.03427L94.6332 7.52093H95.9044L97.0645 1.68441H95.8905L93.0424 5.31664Z" fill="#27A5DE"/>
<path d="M102.615 1.67748L98.8359 7.52093H100.281L101.045 6.26629H103.768L104.046 7.52093H105.393L103.949 1.67748H102.615ZM101.67 5.24039L103.059 3.00144L103.553 5.24039H101.67Z" fill="#27A5DE"/>
<path d="M113.563 2.16271C113.072 1.81238 112.476 1.64104 111.875 1.67748H109.492L108.325 7.52093H109.714L110.034 5.88504H111.145L112.069 7.52093H113.5L112.472 5.71868C112.588 5.68436 112.702 5.64269 112.812 5.59391C113.214 5.41704 113.557 5.12824 113.799 4.7621C114.034 4.37661 114.153 3.93108 114.139 3.47973C114.154 3.23036 114.11 2.98097 114.01 2.75203C113.909 2.5231 113.756 2.32114 113.563 2.16271ZM112.416 4.50562C112.115 4.72399 111.747 4.83172 111.374 4.81062H110.221L110.631 2.77963H111.701C111.985 2.76189 112.267 2.83471 112.507 2.98757C112.606 3.05922 112.685 3.15601 112.735 3.26804C112.785 3.38008 112.805 3.50336 112.791 3.6253C112.801 3.79092 112.772 3.95645 112.707 4.1091C112.642 4.26176 112.542 4.39743 112.416 4.50562Z" fill="#27A5DE"/>
<path d="M122.447 3.93723C122.647 3.67232 122.75 3.34689 122.739 3.01531C122.749 2.82026 122.707 2.62606 122.618 2.45212C122.529 2.27817 122.396 2.13057 122.232 2.02407C121.791 1.7672 121.283 1.64659 120.773 1.67748H117.946L116.779 7.52093H119.856C120.313 7.52654 120.768 7.45866 121.204 7.31991C121.567 7.20379 121.891 6.9904 122.142 6.70298C122.374 6.40971 122.494 6.04377 122.482 5.67016C122.492 5.4856 122.457 5.30138 122.379 5.13349C122.302 4.96559 122.184 4.81909 122.037 4.70665C121.931 4.62321 121.811 4.55766 121.683 4.51257C121.988 4.39838 122.254 4.19857 122.447 3.93723ZM120.454 2.69644C120.675 2.68312 120.895 2.72857 121.093 2.82815C121.165 2.87137 121.224 2.93373 121.263 3.00834C121.303 3.08295 121.321 3.16691 121.315 3.25098C121.321 3.41141 121.274 3.56937 121.183 3.70155C121.087 3.83256 120.954 3.93162 120.801 3.98575C120.603 4.04787 120.397 4.07829 120.19 4.07586H118.8L119.078 2.68952L120.454 2.69644ZM120.808 6.28709C120.544 6.4441 120.239 6.51892 119.933 6.50197H118.328L118.613 5.06017H120.245C120.469 5.04633 120.693 5.09429 120.891 5.1988C120.969 5.24588 121.032 5.31355 121.074 5.39429C121.116 5.47504 121.134 5.56572 121.127 5.6563C121.136 5.78037 121.11 5.9044 121.054 6.01538C120.998 6.12637 120.913 6.22021 120.808 6.28709Z" fill="#27A5DE"/>
<path d="M125.483 7.52093H130.026L130.234 6.43265H127.046L127.317 5.08096H130.04L130.248 4.02041H127.532L127.782 2.76576H130.86L131.068 1.68441H126.657L125.483 7.52093Z" fill="#27A5DE"/>
<path d="M135.931 1.68441H134.576L133.409 7.52093H137.695L137.91 6.41879H134.986L135.931 1.68441Z" fill="#27A5DE"/>
<path d="M143.294 1.68441H141.939L140.772 7.52093H145.058L145.274 6.41879H142.349L143.294 1.68441Z" fill="#27A5DE"/>
<path d="M152.609 7.52093H153.957L152.512 1.67748H151.178L147.399 7.52093H148.844L149.608 6.26629H152.331L152.609 7.52093ZM150.234 5.24039L151.623 3.00144L152.116 5.24039H150.234Z" fill="#27A5DE"/>
<path d="M88.6244 11.7909H98.2315C98.2315 11.7909 96.7727 18.7226 96.2239 21.0447C95.6752 23.3669 94.5776 26.1603 90.7014 26.1603H78.1976L81.9696 22.6182H87.7769C89.8609 22.6182 90.0484 21.6617 90.2568 20.7467L91.5002 15.2498L88.6244 11.7909Z" fill="#27A5DE"/>
<path d="M120.391 11.7909H140.008L139.126 15.2221H131.693L129.241 26.1604H123.211L125.705 15.2221H119.606L120.391 11.7909Z" fill="#27A5DE"/>
<path d="M101.031 11.7909H118.113L117.23 15.2221H106.269L105.859 17.2323L116.174 17.3085L115.452 20.4555L105.004 20.3793L104.511 22.5905H115.994L115.195 26.1604H97.7174L101.031 11.7909Z" fill="#27A5DE"/>
<path d="M94.2511 31.6988H108.908L108.151 34.6448H98.7455L98.3913 36.3708L107.206 36.4401L106.581 39.1366L97.6619 39.0742L97.2381 40.9665H107.088L106.408 44.0303H91.41L94.2511 31.6988Z" fill="white"/>
<path d="M136.076 31.6988H150.741L149.983 34.6448H140.571L140.224 36.3708L149.032 36.4401L148.414 39.1366L139.487 39.0742L139.063 40.9665H148.921L148.233 44.0303H133.235L136.076 31.6988Z" fill="white"/>
<path d="M189.336 31.6988H204L203.243 34.6448H193.83L193.483 36.3708L202.298 36.4401L201.673 39.1366L192.747 39.0742L192.323 40.9665H202.18L201.492 44.0303H186.495L189.336 31.6988Z" fill="white"/>
<path d="M123.239 31.6988H111.347L108.276 44.0304H112.812L113.625 40.5645H117.098L119.877 44.0304H124.983L122.128 40.5645C122.893 40.4618 123.617 40.1589 124.227 39.6865C124.837 39.2142 125.311 38.5892 125.601 37.875C125.74 37.3135 126.164 35.5251 126.296 35.1023C126.428 34.6795 126.789 31.6988 123.239 31.6988ZM115.063 34.6309C115.063 34.6309 119.974 34.6309 121.03 34.6309C122.086 34.6309 121.829 36.246 121.829 36.246C121.723 36.7151 121.458 37.1331 121.078 37.4288C120.698 37.7246 120.227 37.8798 119.745 37.868H114.188L115.063 34.6309Z" fill="white"/>
<path d="M129.38 31.6988H133.847L131.033 44.0303H126.421L129.38 31.6988Z" fill="white"/>
<path d="M149.462 44.0303L152.331 31.6988H157.361L163.981 39.3376L165.863 31.6988H170.191L167.273 44.0303H162.341L155.666 36.246L153.783 44.0303H149.462Z" fill="white"/>
<path d="M187.627 31.6988L186.863 34.6448H178.228C177.595 34.5869 176.961 34.758 176.444 35.127C175.926 35.4959 175.558 36.0382 175.408 36.655C175.325 36.9946 174.894 38.7345 174.824 39.0672C174.764 39.3001 174.759 39.544 174.811 39.779C174.863 40.0141 174.97 40.2335 175.123 40.4194C175.276 40.6053 175.471 40.7524 175.692 40.8487C175.913 40.945 176.154 40.9878 176.394 40.9735H185.369L184.57 44.0304H173.456C169.788 44.0304 170.101 40.6061 170.212 40.1555L171.483 35.0607C171.573 34.7003 172.608 31.6988 177.04 31.6988H187.627Z" fill="white"/>
<path d="M88.8258 31.6988H76.9333L73.8629 44.0304H78.399L79.2118 40.5645H87.2142C88.0824 40.583 88.9348 40.3303 89.6521 39.8419C90.3695 39.3535 90.916 38.6537 91.2154 37.8403C91.41 37.0362 91.8476 35.2894 91.9101 34.8874C92.0351 34.4022 92.3894 31.6988 88.8258 31.6988ZM87.4365 36.246C87.3306 36.7151 87.0651 37.1331 86.6852 37.4288C86.3052 37.7246 85.8343 37.8798 85.3525 37.868H79.7953L80.615 34.6309C80.615 34.6309 85.5262 34.6309 86.5821 34.6309C87.638 34.6309 87.4157 36.246 87.4157 36.246H87.4365Z" fill="white"/>
<path d="M76.8222 11.3611L76.4053 11.1809C74.7278 10.4008 72.9959 9.74292 71.2232 9.21227L69.8339 8.79637L71.1537 7.89525C72.814 6.75151 74.5298 5.57311 76.058 4.56108L83.0671 0H60.4074L59.9628 0.325792C59.2195 0.859535 58.0664 1.5943 56.941 2.30134C55.8157 3.00838 54.732 3.68768 53.9471 4.25608L53.5372 4.55415L53.4192 4.63733C53.2309 4.49441 53.0284 4.3713 52.8148 4.26995C52.1778 3.97302 51.4887 3.80346 50.7864 3.77086C49.6553 3.77209 48.5591 4.16121 47.6813 4.87301C47.0416 5.47335 46.6314 6.27726 46.5212 7.14661C45.9944 7.3598 45.5098 7.66495 45.0902 8.04775L43.1799 6.26629L40.8667 4.10358L40.7208 3.96495C39.2759 2.61326 37.2892 0.75556 37.1155 0.575335L36.6154 0H25.9732C19.4435 0 14.3794 0 14.3308 0H13.1429L13.9973 0.81795L23.0279 9.55192C24.0212 10.5293 25.0077 11.5205 26.0496 12.5672C27.8071 14.3348 29.6202 16.1509 31.4194 17.8561C31.2874 17.974 31.1623 18.078 31.0651 18.175C30.5858 18.6117 30.0787 19.0276 29.5299 19.4782L29.0019 19.9149C28.6616 20.1991 28.3073 20.4833 28.0086 20.7744C27.7099 21.0655 27.3139 21.3913 26.9735 21.6755C26.6332 21.9597 26.2789 22.2716 25.9315 22.5697C25.5842 22.8678 25.4106 23.0341 25.1466 23.2629C25.1049 23.2975 20.548 27.1239 19.3254 28.6696C19.3254 28.6696 10.0309 38.0344 8.55818 39.9198L1.03503 49.5757L10.1559 42.852C7.20359 45.6801 4.17489 48.7647 2.51466 50.4769L2.34794 50.6502L0 53L2.91757 51.4127C3.251 51.2324 4.75841 50.4976 6.34918 49.7282C8.36368 48.7509 10.6422 47.6487 11.2118 47.316C13.2958 46.1653 15.6645 44.8622 17.554 43.8501C19.9992 42.547 22.4722 41.2854 25.1952 39.8782L26.9735 38.9702C29.1061 37.875 31.3013 36.752 33.4894 35.7053C36.7562 34.1589 40.1209 32.8274 43.562 31.7196L57.5107 43.9818L72.168 44.0165L73.6753 37.9859L73.9671 36.9877L63.0054 27.013C64.8115 26.5763 65.9577 26.2713 66.4231 26.098C68.9847 25.1591 71.4095 23.884 73.6337 22.3063C74.377 21.7656 75.0647 21.1695 75.7176 20.6011L76.1414 20.2337C77.0097 19.4851 81.518 15.132 81.6986 14.9448L82.1432 14.515L81.6153 14.1893C81.1915 13.9328 77.4751 11.6522 76.8222 11.3611Z" fill="white"/>
<path d="M56.2673 14.9171L54.2389 16.3034C54.1392 16.3417 54.0544 16.4108 53.9969 16.5006C53.9394 16.5904 53.9122 16.6962 53.9193 16.8025C57.2807 15.1473 60.862 13.9802 64.5545 13.3366C64.4678 13.2676 64.3659 13.2202 64.2571 13.1985C64.1484 13.1768 64.036 13.1814 63.9293 13.2119C62.3997 13.3287 60.881 13.5604 59.3863 13.9051C58.2908 14.0383 57.2317 14.3819 56.2673 14.9171Z" fill="#213975"/>
<path d="M76.1483 12.9138C74.4033 12.0936 72.6019 11.3987 70.7578 10.8343C69.0877 10.2863 67.3755 9.87593 65.6382 9.60739C68.6182 7.62491 72.154 5.11562 75.1063 3.16781L77.3501 1.67055C76.6068 1.67055 61.5536 1.67055 60.9353 1.67055C59.4071 2.77963 56.4409 4.51256 54.9057 5.60778L53.1413 6.89014C52.9314 6.41405 52.5634 6.02477 52.0993 5.788C51.6513 5.54911 51.1482 5.43197 50.6405 5.44834C49.9774 5.46407 49.3359 5.68712 48.8066 6.08606C48.5055 6.39113 48.2953 6.77378 48.1996 7.19122C48.1039 7.60865 48.1265 8.04441 48.2648 8.44978C47.6575 8.47858 47.0684 8.66594 46.5564 8.99316C46.0444 9.32038 45.6274 9.77599 45.3472 10.3144L45.243 10.4877C44.1663 9.48261 42.7631 8.20024 41.999 7.47934C40.0539 5.64243 36.0527 1.93396 35.8304 1.67055C30.1203 1.67055 17.7068 1.67055 17.4915 1.67055C17.6026 1.81612 21.9998 6.16924 24.2366 8.3666C27.3695 11.4443 30.7178 14.9517 33.9618 17.9116C33.7256 18.1403 32.6489 19.0345 32.2252 19.4227C31.5305 20.0535 30.8358 20.6288 30.1412 21.218C29.4465 21.8072 28.7936 22.4242 28.0572 22.9926C27.3209 23.561 26.8624 24.0462 26.2511 24.5591C25.3342 25.3216 21.6247 28.5033 20.6938 29.7163C24.0004 27.2971 27.3625 24.9958 31.3429 23.7689C23.7017 28.7598 13.4486 36.454 9.93359 40.9596C10.3365 40.6615 16.8802 36.1767 19.2906 34.4507C22.5317 32.0563 25.9317 29.884 29.4674 27.9487C30.3913 27.4566 36.0458 23.7204 40.2068 22.2093C38.3104 22.951 28.7449 29.6262 27.2167 30.7145C27.2167 30.7145 20.4299 35.7677 17.3109 38.79L30.8219 30.7006C32.3849 29.848 36.671 27.7685 36.671 27.7685C36.4765 28.1636 34.976 29.4737 36.7613 28.635C38.2826 27.9418 39.8317 27.2833 41.4016 26.6664C44.4231 25.4961 47.5131 24.51 50.6544 23.7134C50.846 23.6664 51.0306 23.5941 51.2032 23.4986C49.6745 23.4147 48.1412 23.5031 46.6323 23.762C45.4314 24.0366 44.2483 24.3838 43.0896 24.8017C43.423 24.5175 47.2575 22.6876 49.2929 21.8142C51.3282 20.9408 53.4608 20.109 55.5448 19.3049C57.5037 18.5562 59.4974 17.9185 61.498 17.2739C63.4986 16.6292 65.3881 16.1093 67.354 15.6033C68.4099 15.333 69.4935 15.1666 70.5633 14.9448C71.9109 14.6675 76.6068 14.2516 77.2667 14.21C77.7295 14.1856 78.1932 14.1856 78.656 14.21C78.0795 13.8635 76.7457 13.1703 76.1483 12.9138ZM64.3391 14.2516C51.9881 16.4559 37.5115 26.6456 37.5115 26.6456C38.3729 25.7375 41.0404 23.0064 42.0337 21.3081C39.5437 21.5268 37.0345 21.2919 34.6287 20.615C35.3858 20.1852 37.6018 19.9218 40.1859 19.7416C40.9639 19.6792 44.6665 19.2841 44.6665 19.2841C44.6665 19.2841 41.3738 19.3395 40.3943 19.395C38.8105 19.5267 38.7619 19.5197 37.2475 19.6861C36.8734 19.7562 36.4894 19.7562 36.1152 19.6861C37.3437 19.0825 38.6162 18.5727 39.922 18.1611C41.2889 17.6992 42.7169 17.4423 44.1594 17.3986C44.6378 17.7265 45.1837 17.9433 45.7571 18.0333C46.3304 18.1232 46.9167 18.084 47.4729 17.9185C47.9314 17.8076 48.1675 17.7383 48.6121 17.5927C48.7387 17.5378 48.8816 17.5338 49.0111 17.5816C49.1406 17.6294 49.2465 17.7253 49.3068 17.8492C49.4318 18.0433 49.5985 18.2443 49.7166 18.4661C49.6263 18.0017 49.4735 17.4264 49.404 16.9273C48.6054 17.2512 47.7665 17.4657 46.9102 17.565C46.5165 17.6032 46.1194 17.5892 45.7293 17.5234C44.9026 17.357 44.0621 17.0035 44.2219 15.8113C44.2186 15.7605 44.2186 15.7096 44.2219 15.6588L44.2774 15.3815C44.4233 14.7715 44.6387 14.1338 44.8123 13.5585C45.0321 12.5871 45.4276 11.664 45.9794 10.8343C46.2426 10.3278 46.642 9.90458 47.1328 9.61196C47.6235 9.31934 48.1863 9.16892 48.758 9.1776C49.0706 9.1776 49.0914 9.06671 48.9803 8.80331C48.8202 8.46873 48.767 8.09314 48.8279 7.72739C48.8888 7.36165 49.0608 7.02341 49.3207 6.75844C49.6251 6.5071 49.9938 6.34542 50.3852 6.29155C50.7766 6.23767 51.1754 6.29373 51.5366 6.45344C51.8665 6.6232 52.1379 6.88748 52.3162 7.21232C52.4944 7.53716 52.5713 7.90773 52.5369 8.27649C52.5417 8.70999 52.4639 9.14046 52.3077 9.54501C52.2382 9.71247 52.1271 9.85951 51.9849 9.97229C51.8428 10.0851 51.6741 10.1599 51.4949 10.1897C51.3282 10.1897 51.1545 10.1342 50.9948 10.155C50.6197 10.2104 50.4877 10.4808 50.6822 10.7858C50.8072 10.9868 50.6822 11.0561 50.4391 11.1324L49.9528 11.2017C49.8203 11.2357 49.6802 11.2249 49.5545 11.171C49.4288 11.117 49.3245 11.023 49.2581 10.9036C49.0914 10.6957 48.8275 10.46 48.7233 10.3422C48.8269 10.7784 49.0315 11.1844 49.3207 11.5275C49.4943 11.673 49.8347 11.5899 49.9667 11.576C50.8643 11.4217 51.7507 11.2087 52.6203 10.9383C52.787 10.8897 53.0371 10.7788 53.2038 10.7511C53.3417 10.7088 53.4881 10.7029 53.6289 10.734C53.7698 10.7651 53.9001 10.8321 54.0072 10.9285C54.1143 11.0249 54.1945 11.1473 54.24 11.2839C54.2855 11.4205 54.2946 11.5665 54.2666 11.7077C54.2666 11.7632 54.225 11.9018 54.2041 11.985C54.2832 11.9758 54.3567 11.9398 54.4123 11.883C54.4679 11.8262 54.5023 11.7521 54.5097 11.673C54.5539 11.4202 54.5072 11.16 54.3778 10.9383C54.2319 10.6818 54.614 10.5501 54.9266 10.4808C56.3485 10.2566 57.7871 10.1545 59.2265 10.1758L59.0111 10.2728L58.8583 10.3422C57.9265 10.7575 57.055 11.296 56.2672 11.9434L56.1769 12.0266L56.031 12.1652C58.4531 11.8173 60.9063 11.7382 63.3458 11.9295C65.7048 12.1256 68.0427 12.5221 70.334 13.1148C68.4863 13.2396 66.1314 13.9259 64.36 14.2447L64.3391 14.2516Z" fill="#213975"/>
<path d="M53.301 12.2761C53.0365 12.2171 52.795 12.0822 52.6064 11.8879C52.4674 11.7631 52.3285 11.8879 52.2035 11.9503C51.3863 12.3719 50.5469 12.7491 49.6889 13.0802C49.4908 13.1805 49.2666 13.2177 49.0467 13.1867C48.8268 13.1557 48.6217 13.058 48.4593 12.9069C48.114 12.6543 47.7824 12.3836 47.4659 12.0959C47.6369 12.5212 47.8711 12.9185 48.1606 13.2743C48.3808 13.5319 48.6915 13.6957 49.0289 13.7317C48.7024 14.2655 48.3343 14.6814 48.3343 15.0349C48.3343 15.1181 48.4176 15.1597 48.5149 15.1874C48.6489 15.1994 48.7837 15.1994 48.9178 15.1874H49.3971C49.5568 15.1874 49.7375 15.1874 49.9806 15.2498C50.6058 15.3954 50.6752 15.6033 50.835 16.4836C50.9184 16.9897 51.0781 17.4957 51.1754 18.0086C51.224 17.4541 51.2588 16.962 51.2727 16.345C51.2865 15.7281 51.4324 15.4785 52.0368 15.2221C52.0923 15.2221 53.7665 14.3903 54.0721 14.2724C53.961 14.0922 53.4886 12.692 53.301 12.2761Z" fill="#213975"/>
<path d="M65.8188 24.5245C68.2356 23.6407 70.5229 22.4378 72.6195 20.9477C73.46 20.3377 74.238 19.6376 75.023 18.9583C76.4123 17.7383 77.7044 16.3658 79.1909 15.0072C69.7333 15.6256 60.5077 18.1986 52.0993 22.5628C53.9888 22.341 60.1851 22.4449 58.3512 22.7915C56.5173 23.1381 53.3636 23.9977 51.5853 24.5037C48.9872 25.2384 46.4239 26.098 43.8954 27.0476C40.825 28.1983 33.1352 31.7127 27.8836 34.4507C22.6319 37.1887 12.2537 43.5243 7.65512 47.3714C9.9197 46.1445 13.9418 43.9056 16.8107 42.3737C19.3601 41.022 21.9303 39.7119 24.5006 38.3949C27.2792 37.0085 30.0578 35.5459 32.8364 34.2012C39.4409 31.1129 46.3934 28.8275 53.5442 27.3942C56.6424 26.7773 64.6031 24.9958 65.8188 24.5245Z" fill="#27A5DE"/>
<path d="M37.5115 26.6456C37.5115 26.6456 40.5124 25.2038 41.7489 24.5661C44.1872 23.3669 46.674 22.2855 49.14 21.1487C51.6061 20.0119 54.0027 19.0692 56.4131 18.1265C59.289 16.9966 62.2135 16.047 65.1728 15.1251C67.1566 14.4895 69.1742 13.9642 71.2163 13.5516C72.1541 13.3783 73.0918 13.2465 74.0991 13.0871C73.9949 13.0247 73.6823 12.8722 73.592 12.8237C72.6704 12.3711 71.7188 11.982 70.7439 11.6592C69.2095 11.1466 67.6337 10.7662 66.0341 10.5224C63.7645 10.1916 61.4708 10.0547 59.1779 10.1134C58.0031 10.598 56.9218 11.2829 55.9824 12.1375C58.4045 11.7895 60.8577 11.7105 63.2972 11.9018C65.6561 12.0979 67.994 12.4944 70.2854 13.0871C68.4724 13.2119 66.1175 13.8981 64.3461 14.217C51.9882 16.4559 37.5115 26.6456 37.5115 26.6456Z" fill="#27A5DE"/>
<path d="M72.1193 37.5423V37.5353L60.7617 27.2486L45.0416 30.7353L58.2123 42.3182L70.9176 42.3459L72.1193 37.5423Z" fill="#27A5DE"/>
</svg>
