<svg width="563" height="135" viewBox="0 0 563 135" fill="none" xmlns="http://www.w3.org/2000/svg">
<path d="M241.642 6.80213L245.078 14.9768H246.792L253.193 6.87163L251.2 16.7577H254.82L258.134 0.19113H254.794L246.679 10.5029L242.499 0.19113H239.359L236.019 16.7577H239.639L241.642 6.80213Z" fill="#213975"/>
<path d="M269.476 13.2046H277.233L278.02 16.749H281.894L277.766 0.182451H273.953L263.18 16.749H267.299L269.476 13.2046ZM275.169 3.92666L276.585 10.2944H271.269L275.169 3.92666Z" fill="#213975"/>
<path d="M295.011 12.11H298.325L300.948 16.749H305.023L302.094 11.6496C302.422 11.5476 302.743 11.4258 303.056 11.2848C304.203 10.786 305.181 9.96845 305.871 8.9305C306.548 7.84087 306.892 6.57924 306.86 5.29924C306.888 4.58084 306.744 3.86608 306.44 3.21366C306.136 2.56125 305.68 1.9898 305.111 1.54633C303.707 0.55475 302.003 0.0731825 300.284 0.182456H293.498L290.157 16.749H294.136L295.011 12.11ZM296.759 3.30985H299.803C300.615 3.25641 301.423 3.4602 302.111 3.8919C302.388 4.10151 302.608 4.37674 302.75 4.69242C302.892 5.00809 302.952 5.35412 302.924 5.69884C302.954 6.16901 302.872 6.63947 302.685 7.07245C302.498 7.50543 302.212 7.88892 301.849 8.19211C300.991 8.81861 299.939 9.12605 298.876 9.06083H295.596L296.759 3.30985Z" fill="#213975"/>
<path d="M326.946 16.1844C327.984 15.8708 328.91 15.2678 329.613 14.4469C330.28 13.6084 330.624 12.5612 330.584 11.4933C330.612 10.9721 330.513 10.452 330.295 9.9771C330.078 9.50217 329.748 9.08652 329.333 8.76547C329.023 8.53075 328.678 8.34605 328.31 8.21817C329.168 7.88657 329.918 7.3277 330.479 6.60233C331.042 5.85084 331.331 4.9322 331.301 3.99615C331.328 3.44277 331.209 2.89194 330.956 2.39823C330.703 1.90452 330.325 1.4851 329.858 1.18149C328.601 0.455941 327.155 0.117327 325.704 0.208521H317.651L314.319 16.7751H323.064C324.382 16.7924 325.694 16.5928 326.946 16.1844ZM320.912 3.0753H324.812C325.437 3.04214 326.06 3.16773 326.623 3.44018C326.833 3.55689 327.006 3.73084 327.121 3.94164C327.235 4.15245 327.287 4.39135 327.27 4.63033C327.289 5.09102 327.154 5.5451 326.887 5.9221C326.62 6.29909 326.235 6.57791 325.792 6.71527C325.229 6.9034 324.637 6.9916 324.043 6.97587H320.117L320.912 3.0753ZM319.566 9.77317H324.218C324.854 9.74115 325.487 9.87598 326.054 10.1641C326.278 10.2986 326.459 10.493 326.576 10.725C326.694 10.957 326.743 11.2173 326.719 11.4759C326.741 11.8227 326.673 12.1693 326.519 12.4816C326.366 12.7939 326.133 13.0611 325.844 13.2568C325.091 13.7043 324.22 13.9162 323.343 13.8649H318.77L319.566 9.77317Z" fill="#213975"/>
<path d="M352.699 13.6824H343.622L344.392 9.84267H352.148L352.743 6.83688H344.995L345.712 3.26642H354.483L355.078 0.19113H342.494L339.162 16.7577H352.105L352.699 13.6824Z" fill="#213975"/>
<path d="M374.587 13.6303H366.253L368.947 0.19113H365.082L361.75 16.7577H373.975L374.587 13.6303Z" fill="#213975"/>
<path d="M389.934 0.19113H386.078L382.737 16.7577H394.962L395.583 13.6303H387.241L389.934 0.19113Z" fill="#213975"/>
<path d="M416.212 0.182451H412.399L401.626 16.749H405.753L407.931 13.2046H415.687L416.474 16.749H420.331L416.212 0.182451ZM409.715 10.2944L413.623 3.92666L415.031 10.2944H409.715Z" fill="#213975"/>
<path d="M234.069 28.8678L242.166 38.6149C242.166 38.6149 239.219 51.6458 238.625 54.2519C238.03 56.8581 237.418 59.5598 231.559 59.5598H215.005L204.442 69.6718H239.989C251.034 69.6718 254.164 61.7925 255.729 55.1554C257.295 48.5183 261.448 28.8678 261.448 28.8678H234.069Z" fill="#213975"/>
<path d="M322.408 38.6149H339.792L332.674 69.6718H349.866L356.862 38.6149H378.041L380.56 28.8765H324.646L322.408 38.6149Z" fill="#213975"/>
<path d="M259.997 69.6718H309.824L312.098 59.5425H279.366L280.774 53.2703L310.55 53.4788L312.622 44.5483L283.205 44.3311L284.368 38.6149H315.63L318.149 28.8765H269.441L259.997 69.6718Z" fill="#213975"/>
<path d="M144.41 39.1622C142.407 40.5 140.387 41.8118 138.393 43.1583C138.096 43.2761 137.843 43.4836 137.67 43.7516C137.498 44.0197 137.414 44.3348 137.431 44.6525C147.462 39.5792 157.929 36.4604 169 34.3668C168.74 34.168 168.438 34.0303 168.117 33.9641C167.796 33.8979 167.464 33.9049 167.146 33.9846C162.608 34.3313 158.102 35.0019 153.661 35.9913C150.47 36.6689 147.225 37.2684 144.41 39.1622Z" fill="#213975"/>
<path d="M210.791 37.0077C209.042 36.0434 205.106 33.9846 203.314 33.2114C197.569 30.7095 193.371 28.8069 187.32 27.0695C182.073 25.5492 178.243 24.2896 172.139 23.4382C180.989 17.583 191.473 10.1815 200.218 4.42184C202.562 2.88419 204.276 1.73745 206.89 0C204.678 0.0521235 160.01 0 158.174 0C153.644 3.26641 144.847 8.4006 140.282 11.6409C139.644 12.0927 138.175 13.1786 135.035 15.4199C134.416 14.0101 133.326 12.8563 131.949 12.1535C130.603 11.4484 129.096 11.1041 127.576 11.1545C125.615 11.2066 123.72 11.8657 122.154 13.0396C121.258 13.9413 120.632 15.073 120.346 16.3081C120.061 17.5431 120.127 18.8328 120.537 20.0328C116.943 20.1805 114.109 21.9788 111.879 25.5319C111.766 25.6969 111.678 25.8707 111.573 26.0444C108.373 23.0907 104.219 19.2857 101.954 17.1573C96.1653 11.7365 84.2987 0.747104 83.6429 0C66.6869 0 29.8631 0 29.216 0C29.557 0.425676 42.6041 13.2828 49.25 19.7809C58.5369 28.8765 68.4883 39.2403 78.1075 47.9797C77.3991 48.6487 74.2248 51.2896 72.9569 52.445C70.9281 54.2954 68.7682 56.0068 66.6607 57.7529C64.5532 59.499 62.6644 61.306 60.5831 62.9652C58.7468 64.4508 57.0328 66.084 55.2227 67.5955C52.5031 69.8542 41.5022 79.2625 38.669 82.833C48.4892 75.6834 58.4669 68.8813 70.2722 65.2674C47.5361 80.0357 17.1745 102.727 6.74214 116.053C7.94016 115.184 27.2659 101.91 34.5152 96.8282C50.1245 85.8649 56.9541 81.7471 64.7106 77.612C67.4477 76.1525 84.2287 65.1197 96.5762 60.6631C90.9447 62.861 62.5594 82.5724 58.0384 85.778C58.0384 85.778 37.9257 100.703 28.6476 109.633L68.7856 85.7432C73.4116 83.2326 86.1351 77.056 86.1351 77.056C85.5667 78.2288 81.1157 82.0946 86.4062 79.6187C90.9184 77.499 95.5269 75.6226 100.17 73.807C109.138 70.3618 118.307 67.4608 127.629 65.1197C128.195 64.9745 128.738 64.7554 129.246 64.4682C125.81 63.9556 117.957 64.8156 115.701 65.25C111.766 65.9884 109.02 67.1612 105.207 68.334C106.195 67.4652 117.625 62.0705 123.571 59.5077C129.692 56.9015 135.971 54.4691 142.223 52.0801C148.021 49.8736 153.933 47.945 159.879 46.0946C165.633 44.305 171.413 42.6197 177.255 41.1516C180.394 40.3523 183.603 39.8571 186.778 39.2056C190.791 38.3977 204.722 37.1728 206.672 37.0338C208.043 36.9511 209.418 36.9424 210.791 37.0077ZM168.335 37.1641C131.607 43.7056 88.7148 73.807 88.7148 73.807C91.2682 71.1226 99.2084 63.0521 102.129 58.0309C94.1889 58.4392 89.8166 58.3262 80.1625 55.9025C82.4186 54.6342 88.9771 53.9131 96.655 53.2963C98.9723 53.1139 109.938 51.9498 109.938 51.9498C109.938 51.9498 100.17 52.1149 97.2583 52.2712C92.5624 52.6535 92.4313 52.6448 87.9278 53.14C86.8214 53.3624 85.6836 53.383 84.5698 53.2008C88.2158 51.4165 91.9926 49.9093 95.8679 48.6921C100.179 47.2239 103.318 46.7896 108.434 46.4508C111.189 48.6573 115.15 48.7442 118.281 47.9884C119.636 47.6583 120.327 47.4411 121.656 47.0241C122.03 46.8694 122.449 46.8613 122.829 47.0016C123.209 47.1418 123.521 47.42 123.702 47.7799C124.061 48.3446 124.577 48.9527 124.918 49.6042C124.647 48.2143 124.192 46.5203 123.973 45.0434C121.607 46.0009 119.121 46.6379 116.584 46.9372C115.418 47.0521 114.241 47.0112 113.086 46.8156C110.655 46.3118 108.154 45.278 108.618 41.751C108.618 41.6033 108.67 41.4556 108.705 41.3079L108.88 40.4913C109.308 38.6844 109.938 36.7906 110.445 35.0965C111.573 31.335 111.818 30.4228 113.943 27.0608C115.884 23.9508 118.473 22.0483 122.286 22.1525C123.204 22.1525 123.265 21.8398 122.941 21.0579C122.458 20.065 122.295 18.9477 122.475 17.8591C122.655 16.7706 123.169 15.7639 123.947 14.9768C124.855 14.2445 125.948 13.7758 127.107 13.6225C128.266 13.4691 129.446 13.6372 130.514 14.1081C131.494 14.6086 132.3 15.3893 132.828 16.3494C133.357 17.3095 133.583 18.4049 133.479 19.4942C133.494 20.7761 133.266 22.0494 132.805 23.2471C132.595 23.7387 132.266 24.1707 131.846 24.5043C131.426 24.8379 130.93 25.0626 130.401 25.1583C129.902 25.1583 129.395 24.9933 128.905 25.0541C127.812 25.2018 127.41 26.001 128.031 26.9218C128.407 27.5126 128.031 27.7037 127.305 27.9296C127.2 27.9296 126.203 28.0772 125.871 28.1293C125.493 28.2115 125.098 28.1715 124.744 28.0153C124.39 27.859 124.096 27.5946 123.903 27.2606C123.414 26.6525 122.627 25.9575 122.321 25.6013C122.6 26.7394 123.046 28.4855 123.685 29.0763C124.323 29.667 125.215 29.2674 125.591 29.2066C128.254 28.7574 130.883 28.1305 133.461 27.3301C133.942 27.1911 134.686 26.8697 135.21 26.7741C135.619 26.6543 136.052 26.6404 136.467 26.734C136.883 26.8276 137.267 27.0254 137.584 27.3086C137.9 27.5918 138.139 27.9509 138.276 28.3516C138.413 28.7523 138.444 29.1813 138.367 29.5975C138.367 29.7626 138.245 30.1709 138.175 30.4228C138.857 30.2317 139.049 29.9363 139.093 29.4932C139.218 28.7487 139.079 27.9841 138.699 27.3301C138.271 26.5657 139.399 26.1921 140.317 25.9836C144.536 25.3247 148.805 25.034 153.076 25.1149L152.446 25.3929L152.227 25.4971L151.991 25.61C149.216 26.8625 146.63 28.491 144.305 30.4489L144.042 30.6834L143.614 31.1004C150.8 30.0647 158.08 29.8287 165.318 30.3967C172.316 30.9701 179.252 32.1325 186.052 33.8716C180.586 34.1931 173.591 36.2259 168.335 37.1641Z" fill="#213975"/>
<path d="M135.525 31.3436C134.763 31.1665 134.072 30.7671 133.54 30.1969C133.146 29.8321 132.718 30.1969 132.351 30.3967C129.928 31.639 127.441 32.7526 124.9 33.7326C124.312 34.0314 123.645 34.1425 122.991 34.0507C122.337 33.959 121.727 33.6689 121.245 33.2201C120.214 32.4789 119.23 31.6753 118.298 30.8137C118.78 32.0683 119.455 33.2407 120.301 34.2886C120.959 35.0452 121.88 35.5288 122.88 35.6438C121.892 37.2075 120.72 38.4411 120.799 39.4749C120.799 39.7355 121.053 39.8572 121.341 39.9267C121.734 39.9935 122.133 40.0139 122.53 39.9874H123.956C124.428 40.0309 124.97 40.0917 125.705 40.196C127.55 40.6129 127.821 41.2297 128.249 43.8185C128.494 45.3214 128.967 46.8157 129.238 48.3446C129.404 46.7027 129.482 45.2519 129.535 43.4276C129.587 41.3687 130.007 40.8214 131.809 40.1091C131.966 40.0483 136.942 37.6506 137.842 37.2944C137.484 36.7124 135.989 32.5772 135.525 31.3436Z" fill="#213975"/>
<path d="M289.746 93.7442L291.906 85.3871H250.115L242.009 120.397H284.771L286.721 111.701H258.624L259.839 106.315L285.278 106.506L287.053 98.8349L261.921 98.6525L262.926 93.7442H289.746Z" fill="#27A5DE"/>
<path d="M404.529 106.506L406.304 98.8349L381.172 98.6525L382.178 93.7442H408.997L411.157 85.3871H369.367L361.26 120.397H404.022L405.972 111.701H377.875L379.091 106.315L404.529 106.506Z" fill="#27A5DE"/>
<path d="M560.84 93.7442L563 85.3871H521.2L513.103 120.397H555.856L557.806 111.701H529.718L530.924 106.315L556.363 106.506L558.138 98.8349L533.015 98.6525L534.011 93.7442H560.84Z" fill="#27A5DE"/>
<path d="M332.744 85.3871H298.849L290.105 120.388H303.029L305.347 110.632H315.211L323.177 120.388H337.737L329.613 110.537C335.936 109.668 339.18 104.456 339.565 102.892C339.949 101.328 341.174 96.2201 341.471 95.0212C341.838 93.5618 342.87 85.3871 332.744 85.3871ZM328.721 98.2963C328.42 99.6118 327.674 100.785 326.608 101.621C325.542 102.457 324.22 102.906 322.862 102.892H307.122L309.474 93.7008C309.474 93.7008 323.466 93.6573 326.483 93.7008C329.5 93.7442 328.721 98.2963 328.721 98.2963Z" fill="#27A5DE"/>
<path d="M350.259 85.3871L341.83 120.397H354.973L362.992 85.3871H350.259Z" fill="#27A5DE"/>
<path d="M454.277 85.3871L448.917 107.062L430.028 85.3871H415.687L407.52 120.397H419.841L425.201 98.2876L444.23 120.397H458.3L466.607 85.3871H454.277Z" fill="#27A5DE"/>
<path d="M479.812 106.289C480.022 105.281 481.237 100.416 481.482 99.4517C481.727 98.4874 483.082 93.7442 489.519 93.7442H514.004L516.277 85.3871H486.169C473.437 85.3871 470.481 93.8919 470.228 94.943C469.974 95.9942 466.922 108.122 466.599 109.399C466.275 110.676 465.392 120.397 475.851 120.397H507.603L509.885 111.709H484.289C479.462 111.701 479.611 107.296 479.812 106.289Z" fill="#27A5DE"/>
<path d="M234.672 85.3871H200.743L191.998 120.388H204.94L207.266 110.632H230.038C237.304 110.632 240.907 105.159 241.458 102.892C242.009 100.625 243.207 95.6467 243.487 94.5174C243.793 93.0579 244.764 85.3871 234.672 85.3871ZM230.658 98.2963C230.357 99.6133 229.61 100.788 228.542 101.624C227.474 102.46 226.15 102.908 224.791 102.892H209.05L211.394 93.7008C211.394 93.7008 225.385 93.6573 228.402 93.7008C231.419 93.7442 230.615 98.2963 230.615 98.2963H230.658Z" fill="#27A5DE"/>
<path d="M172.681 67.5C179.846 64.8849 186.627 61.3324 192.846 56.9363C195.339 55.1293 197.647 53.0705 199.991 51.0637C204.206 47.4585 207.949 43.3929 212.233 39.388C182.274 41.7336 157.142 48.7182 131.861 61.6969C137.466 61.0454 155.839 61.3494 150.47 62.3919C145.1 63.4344 135.674 65.945 130.357 67.4305C122.635 69.611 115.028 72.139 107.525 74.9537C98.4126 78.3591 75.6065 88.7317 60.006 96.8282C44.4055 104.925 13.6592 123.628 0 135C6.70717 131.369 18.6524 124.723 27.161 120.232C34.7251 116.244 42.3505 112.361 49.9758 108.486C58.1871 104.308 66.3721 100.051 74.6883 96.0898C94.2898 86.966 114.923 80.214 136.146 75.9788C145.477 74.1458 169.008 68.9247 172.681 67.5Z" fill="#27A5DE"/>
<path d="M88.7148 73.807C88.7148 73.807 97.6169 69.5328 101.29 67.7259C108.513 64.1815 115.902 60.9846 123.221 57.64C130.304 54.3909 137.554 51.5589 144.803 48.7095C153.329 45.3649 162.021 42.472 170.801 39.8485C176.683 37.9564 182.668 36.3988 188.728 35.1834C191.5 34.6882 194.289 34.3147 197.28 33.8108C196.974 33.6371 196.038 33.1766 195.776 33.0463C193.04 31.7056 190.218 30.5449 187.329 29.5714C182.768 28.0639 178.088 26.9422 173.337 26.2182C165.659 25.0193 159.748 25.0193 152.997 25.0193C149.509 26.4425 146.305 28.4723 143.535 31.0135C150.721 29.9778 158.001 29.7418 165.239 30.3099C172.237 30.8832 179.173 32.0457 185.973 33.7848C180.586 34.1583 173.591 36.1911 168.335 37.1294C131.625 43.7056 88.7148 73.807 88.7148 73.807Z" fill="#27A5DE"/>
<path d="M111.022 85.8909L150.111 120.101L187.818 120.197L191.369 106.002L191.377 105.976L157.675 75.5878L111.022 85.8909Z" fill="#27A5DE"/>
</svg>
